<?xml version="1.0" encoding="utf-8"?>
<!-- Generator: Adobe Illustrator 27.5.0, SVG Export Plug-In . SVG Version: 6.00 Build 0)  -->
<svg version="1.1" id="Capa_1" xmlns="http://www.w3.org/2000/svg" xmlns:xlink="http://www.w3.org/1999/xlink" x="0px" y="0px"
	 width="100" height="100" viewBox="0 0 2122 2122" style="enable-background:new 0 0 2122 2122;" xml:space="preserve">
<g>
	<g>
		<path style="fill:#F8BB96;" d="M1837.134,1416.406c-62.384-63.36-145.705-98.638-234.614-99.337l-2.544-0.01h-0.065
			c-26.78,0.002-53.075,3.201-78.486,9.325l-60.862-216.5l1.542-0.46l-4.373-14.654l-6.225,1.858l-5.805-20.648l-0.078-0.378
			c-0.167-0.88-0.512-3.103-0.512-6.325c0.001-4.593,0.694-11.2,3.59-18.976c4.362-11.652,13.615-26.074,33.751-40.447
			c13.413-9.561,31.735-19.039,56.531-27.392c6.942,15.498,22.403,26.369,40.517,26.509c16.295,0.123,30.599-8.51,38.533-21.474
			h0.001c0,0,15.809-9.068,19.782-39.617c0,0-34.497-55.903-52.296-45.643c0,0-30.283,10.817-67.152,1.254
			c-86.115-22.336-161.79-70.63-161.79-70.63s-22.262-117.729-53.982-199.65c-1.6-34.322-12.324-61.438-12.324-61.438
			c-0.097-0.026-0.193-0.071-0.289-0.098c6.841-9.261,14.865-19.505,23.868-29.951c10.623-12.326,22.59-24.917,35.58-36.46
			c0,0,8.045-4.162,38.778-5.936c4.845-0.279,10.203-0.505,16.236-0.64c27.049,2.439,42.85-0.41,42.85-0.41
			c9.57,0,28.163-92.968,28.163-92.968c8.422-1.195,17.934-3.547,17.934-3.547s6.872-2.874,0-12.298
			c-6.872-9.422-14.87-32.305-14.87-32.305c5.308-20.573,3.51-29.167,3.51-29.167c-2.162-27.214-8.804-50.244-18.352-69.493
			c0.018-0.008,0.034-0.009,0.052-0.017c0,0,27.467-2.741,28.675-34.132c1.207-31.391-12.362-70.384-39.784-79.439
			c-27.422-9.056-43.784-7.991-67.671,0c-18.37,6.145-53.671,8.452-66.952,6.037c-13.28-2.415-67.668,2.169-77.931,29.334
			c0,0-22.336,19.317-27.769,37.427c-5.433,18.111-8.452,59.16-3.018,86.326c5.43,27.149,24.782,98.36,36.987,98.295
			c-9.809,11.932-22.929,26.596-39.861,42.954c-123.097-16.084-192.318,47.506-308.733,266.233c0,0-29.902,53.471-60.89,89.375
			c-19.889,23.044-14.245,38.827-7.652,47.186c-8.312,14.878-12.242,24.621-12.242,24.621
			c-11.783,30.86-16.174,55.795-16.157,75.847c0.036,41.944,19.378,62.479,30.902,70.991c-69.787-5.243-98.84-6.978-98.455,28.631
			c0.492,44.029,71.634,46.349,115.865,38.743l14.655,47.419l-6.187,1.912l30.617,99.066l-150.323,155.702
			c-57.642-49.99-132.587-80.582-214.679-81.222l-2.563-0.01h-0.063c-88.136,0.007-171.157,34.209-233.766,96.307
			c-62.645,62.133-97.525,144.944-98.214,233.177c-1.387,183.099,146.412,333.214,329.469,334.64l2.651,0.01
			c88.137,0,171.163-34.2,233.784-96.301c60.612-60.107,95.137-139.575,97.96-224.563l76.297-1.553
			c2.87,14.282,8.781,27.435,16.926,38.891l-2.228,12.776c-0.311-0.677-0.68-1.317-1.171-1.88
			c-6.775-7.766-18.601,15.287-18.601,15.287s-19.055,33.167-14.863,63.35h-0.007c0.01,0.069,0.026,0.137,0.037,0.207
			c0.226,1.52,0.488,3.035,0.811,4.538c0.356,1.655,0.779,3.297,1.309,4.912l47.321,0.367l-0.225,27.218l75.576,0.585l0.227-27.217
			l57.807,0.449c0,0,0.05-0.069,0.1-0.141c0.018-0.026,0.023-0.033,0.047-0.068c0.08-0.115,0.19-0.277,0.324-0.484
			c0.018-0.027,0.036-0.058,0.055-0.087c0.116-0.182,0.253-0.404,0.397-0.644c0.048-0.08,0.092-0.153,0.143-0.24
			c0.168-0.286,0.348-0.605,0.537-0.955c0.051-0.095,0.103-0.199,0.155-0.298c0.15-0.286,0.303-0.594,0.458-0.915
			c0.069-0.143,0.135-0.278,0.204-0.427c0.189-0.408,0.377-0.842,0.562-1.295c0.07-0.173,0.137-0.352,0.206-0.531
			c0.133-0.345,0.261-0.704,0.386-1.07c0.068-0.198,0.136-0.389,0.2-0.593c0.156-0.497,0.298-1.014,0.428-1.541
			c0.025-0.102,0.058-0.194,0.082-0.296h-0.016c2.068-8.829-0.079-21.531-25.076-28.169c0.002-0.001,0.003-0.002,0.005-0.003
			l-0.075-0.018c0,0-0.053-0.016-0.154-0.045c-0.03-0.009-0.094-0.028-0.132-0.039c-0.094-0.028-0.186-0.055-0.328-0.098
			c-0.329-0.099-0.806-0.244-1.378-0.42c-0.111-0.034-0.206-0.063-0.326-0.1c-0.27-0.083-0.576-0.178-0.887-0.276
			c-0.107-0.033-0.2-0.062-0.312-0.097c-2.466-0.773-6.088-1.945-10.349-3.424c0.329-0.932,0.003-1.988-0.882-2.503
			c-1.002-0.583-2.287-0.244-2.871,0.758l-0.202,0.347c-2.834-1.02-5.852-2.149-8.951-3.369c0.38-0.95,0.055-2.053-0.855-2.583
			c-1.001-0.584-2.286-0.245-2.87,0.757l-0.155,0.265c-2.895-1.191-5.808-2.452-8.658-3.769l0.373-0.646
			c0.581-1.003,0.238-2.287-0.765-2.868c-1.003-0.581-2.287-0.239-2.868,0.765l-0.542,0.936c-2.579-1.27-5.057-2.581-7.375-3.923
			c2.481,0.202,4.959,0.418,7.489,0.438l0.014,0.001l0.716,0.002c55.89-0.003,101.362-45.05,101.795-101.008c0-0.003,0-0.006,0-0.01
			l0.005-1.062c-0.003-19.79-5.774-38.213-15.605-53.837l360.3-327.829l23.417,83.299c-49.481,15.802-94.904,43.123-132.827,80.735
			c-62.804,62.289-97.773,145.305-98.463,233.757c-1.392,183.542,146.768,334.013,330.273,335.432l2.639,0.01
			c88.363,0,171.589-34.281,234.348-96.528c62.79-62.278,97.754-145.29,98.453-233.743
			C1933.496,1563.629,1899.523,1479.771,1837.134,1416.406z M1171.854,1098.076c0,0-21.733,20.123-35.938,61.173
			c-4.413,12.751-11.304,36.257-18.688,60.792l-24.659,0.222c2.292-1.199,4.484-2.36,6.539-3.463
			c-6.66-39.697-14.671-74.836-22.312-103.851c-2.5-9.494-4.955-18.297-7.315-26.423c21.921,5.838,41.514,11.046,56.616,15.057
			c3.899-4.122,7.72-8.32,11.474-12.574C1149.178,1092.343,1161.676,1095.749,1171.854,1098.076z M960.701,1348.531l-27.82-90.926
			l12.141-0.11l8.588,18.463c2.185-0.538,4.394-1.141,6.597-1.73l25.477,91.237l10.214,36.576l-6.834,39.186l-20.791-67.954
			l0.07-0.021L960.701,1348.531z M928.393,1221.742l-6.858,0.062l-13.64-44.136L928.393,1221.742z M958.762,1614.978l-18.548,0.377
			c3.157-17.199,11.161-32.643,22.559-44.921l3.199,3.199L958.762,1614.978z M1005.353,1717.634
			c-0.8-3.569-2.335-9.299-4.192-10.372c-2.644-1.527-5.433-1.187-8.404,0.176c5.527-11.931,13.182-28.525,22.021-47.869
			c0.409,0.2,0.806,0.42,1.225,0.602L1005.353,1717.634z M1045.361,1591.912c6.324-14.158,12.71-28.576,18.935-42.807
			c6.129,2.663,11.854,6.046,17.181,9.945L1045.361,1591.912z M1098.169,1279.932c-1.502-8.043-3.027-16.013-4.551-23.776
			l12.525-0.113C1103.381,1264.71,1100.69,1272.832,1098.169,1279.932z M522.745,1363.446
			c67.926,0.535,129.855,25.335,177.868,66.096l-155.12,160.672c-7.41-3.582-15.677-5.676-24.451-5.745
			c-0.422-0.003-0.83,0.048-1.25,0.054v-221.067c0.246,0,0.488-0.018,0.734-0.018c0.74,0,1.479,0.003,2.217,0.009H522.745z
			 M574.656,1622.794c-0.933-2.647-2.003-5.229-3.297-7.682l155.092-160.644c40.121,44.067,66.203,100.959,71.483,163.782
			L574.656,1622.794z M506.867,1586.193c-9.87,2.43-18.748,7.376-25.877,14.181l-156.324-156.324
			c47.35-46.883,111.297-76.837,182.2-80.27V1586.193z M472.676,1610.339c-4.845,7.349-8.074,15.857-9.1,25.052H242.326
			c1.618-70.259,29.104-133.924,73.376-182.026L472.676,1610.339z M463.613,1648.315c1.028,9.179,4.195,17.717,9.047,25.068
			l-156.929,156.928c-44.326-48.172-71.795-111.873-73.394-181.996H463.613z M324.698,1839.623l156.319-156.32
			c7.121,6.792,15.973,11.762,25.849,14.19v222.378C435.827,1916.415,371.974,1886.441,324.698,1839.623z M519.791,1699.188
			c0.117,0.001,0.231,0.02,0.347,0.021c11.805,0.098,22.8-3.392,31.969-9.438l156.938,156.939
			c-49.643,45.677-115.756,73.546-188.412,73.551c-0.28,0-0.562-0.002-0.843-0.003V1699.188z M562.034,1681.419
			c6.077-6.365,10.723-14.099,13.377-22.73l223.249-4.543c-3.125,71.608-33.171,136.005-80.302,183.597L562.034,1681.419z
			 M928.059,1615.602l-76.399,1.555c-5.732-77.374-38.095-147.505-88.031-201.197l136.603-141.493l26.146,84.601l49.053,160.322
			l-4.98,28.556C948.2,1563.449,932.505,1587.62,928.059,1615.602z M940.949,1651.25l11.528-0.234l-3.765,21.589
			C945.267,1665.93,942.651,1658.769,940.949,1651.25z M1024.488,1721.148c-2.236-0.101-4.467-0.215-6.656-0.474l6.656-35.922
			V1721.148z M1031.329,1721.201v-58.567c6.337-0.577,12.131-3.042,16.808-6.836l41.438,41.438
			C1074.187,1711.551,1053.808,1720.491,1031.329,1721.201z M1094.398,1692.383l-41.467-41.466
			c3.717-4.683,6.113-10.448,6.641-16.764h58.6C1117.521,1656.645,1108.619,1676.988,1094.398,1692.383z M1118.091,1627.311h-58.287
			l45.838-41.708C1112.99,1597.925,1117.43,1612.12,1118.091,1627.311z M1090.48,1550.859c-6.565-5.049-13.706-9.383-21.4-12.727
			c18.385-42.313,34.79-81.838,43.12-106.241l95.044,0.745c0,0,0.047-0.065,0.126-0.179c0.003-0.004,0.003-0.004,0.006-0.009
			c1.593-2.294,17.895-27.302-21.053-37.614c0,0-0.053-0.016-0.154-0.045c-0.96-0.284-6.379-1.908-13.705-4.448
			c0.312-0.924-0.015-1.963-0.89-2.474c-1.001-0.585-2.286-0.247-2.871,0.754l-0.19,0.325c-2.84-1.022-5.867-2.152-8.973-3.375
			c0.37-0.948,0.044-2.042-0.864-2.569c-1.003-0.582-2.287-0.241-2.869,0.762l-0.144,0.249c-2.883-1.185-5.782-2.441-8.62-3.75
			l0.381-0.651c0.585-1.001,0.247-2.286-0.753-2.871c-1.001-0.585-2.286-0.247-2.871,0.754l-0.56,0.958
			c-2.921-1.437-5.722-2.926-8.295-4.454l0.021-0.036c0.581-1.003,0.239-2.287-0.764-2.868c-0.967-0.56-2.181-0.247-2.789,0.674
			c-3.688-2.469-6.693-5.01-8.563-7.554c-0.002,0.005-0.004,0.01-0.005,0.015c-0.506-0.686-0.961-1.373-1.296-2.059
			c0,0-2.034-11.709-4.795-13.281c-2.057-1.186-4.199-1.253-6.446-0.588c8.528-14.232,23.278-30.37,23.278-30.37
			s20.571-26.646,47.899-62.566l236.098-2.128L1090.48,1550.859z M1464.287,1216.912l-255.41,2.302
			c41.868-55.487,88.377-118.308,102.831-142.331c0,0,16.903-13.543,13.683-28.837c-2.791-13.256-46.49-43.361-120.533-71.222
			c1.682-4.55,3.068-8.825,4.02-12.627c-26.067-12.967-53.687-23.429-77.316-31.286c13.754-1.354,17.365-11.597,18.558-19.963
			c1.286-8.977,14.07-69.685,24.338-92.765c5.192-11.672,29.161-34.422,51.594-54.068c18.03,43.764,46.927,113.468,51.444,121.68
			c6.64,12.073,11.88,11.812,11.88,11.812c18.501,18.807,218.121,54.592,218.121,54.592s5.549,9.753,16.885,18.923
			c-32.937,12.345-54.496,26.94-68.531,41.538c-10.278,10.694-16.444,21.37-19.975,30.864c-3.538,9.495-4.452,17.779-4.45,23.752
			c0.001,5.97,0.902,9.65,1.016,10.098l0.04,0.15l5.908,21.016l-7.044,2.102l4.373,14.654l1.891-0.564l28.192,100.282
			C1465.299,1216.976,1464.8,1216.907,1464.287,1216.912z M1899.08,1652.288l-7.66-0.059L1899.08,1652.288L1899.08,1652.288z
			 M1554.27,1615.317c-6.356,8.366-10.474,18.505-11.442,29.585h-221.434c1.302-72.252,29.994-137.563,76.126-186.335
			L1554.27,1615.317z M1543.169,1657.826c1.473,10.661,5.813,20.412,12.313,28.372l-156.575,156.576
			c-46.388-48.363-75.424-113.255-77.419-184.948H1543.169z M1408.07,1851.889l156.697-156.697
			c7.992,6.222,17.647,10.397,28.227,11.677v221.547C1521.267,1926.639,1456.472,1897.881,1408.07,1851.889z M1536.14,1378.731
			c18.325-4.296,37.338-6.77,56.854-7.249v221.565c-0.625,0.075-1.242,0.174-1.86,0.269l-41.205-146.575l4.94-1.388
			L1536.14,1378.731z M1801.891,1458.068c46.457,48.902,75.277,114.485,76.561,186.834h-221.367
			c-0.989-11.309-5.281-21.663-11.886-30.141L1801.891,1458.068z M1792.773,1448.907l-156.6,156.601
			c-8.427-6.879-18.833-11.422-30.256-12.609v-221.458C1678.524,1372.983,1744.059,1402.174,1792.773,1448.907z M1791.319,1852.366
			c-48.641,45.989-113.672,74.57-185.401,76.067v-221.447c10.708-1.107,20.517-5.184,28.657-11.364L1791.319,1852.366z
			 M1643.97,1686.739c6.733-8.049,11.249-17.994,12.754-28.913h221.657c-2.015,72.08-31.279,137.102-77.879,185.446
			L1643.97,1686.739z M1531.816,1451.832l4.94-1.388l41.184,146.504c-5.392,2.241-10.351,5.302-14.767,8.994l-156.56-156.561
			c29.901-28.813,66.158-50.969,106.469-64.189L1531.816,1451.832z"/>
		<g>
			<path style="fill:#CDCAE1;" d="M1837.134,1416.406c-62.384-63.36-145.705-98.638-234.614-99.337l-2.544-0.01h-0.065
				c-26.78,0.002-53.075,3.201-78.486,9.325l-60.862-216.5l1.542-0.46l-4.373-14.654l-6.225,1.858l-5.805-20.648l-0.078-0.378
				c-0.167-0.88-0.512-3.103-0.512-6.325c0.001-4.593,0.694-11.2,3.59-18.976c4.362-11.652,13.615-26.074,33.751-40.447
				c13.413-9.561,31.735-19.039,56.531-27.392c6.942,15.498,22.403,26.369,40.517,26.509c16.295,0.123,30.599-8.51,38.533-21.474
				c4.1-6.699,6.53-14.533,6.589-22.957c0.186-24.72-19.691-44.914-44.456-45.105c-24.715-0.206-44.918,19.692-45.112,44.419
				c-0.049,6.566,1.351,12.794,3.847,18.432c-5.609-2.666-10.436-5.863-14.516-9.163c-32.937,12.345-54.496,26.94-68.531,41.538
				c-10.278,10.694-16.444,21.37-19.975,30.864c-3.538,9.495-4.452,17.779-4.45,23.752c0.001,5.97,0.902,9.65,1.016,10.098
				l0.04,0.15l5.908,21.016l-7.044,2.102l4.373,14.654l1.891-0.564l28.192,100.282c-0.506-0.039-1.005-0.108-1.518-0.103
				l-255.41,2.302l-91.649,0.826l-24.659,0.222l-164.177,1.48l-6.858,0.062l-13.64-44.136l-0.945-3.058l-15.133-48.965l-6.187,1.912
				l-14.029-45.395c43.205-8.909,107.882-16.282,107.882-16.282c0.357-1.093,0.525-2.134,0.74-3.189
				c-58.231-15.599-114.587-30.815-140.215-38.079c0,0-3.486-1.462-8.371-5.07c-69.787-5.243-98.84-6.978-98.455,28.631
				c0.492,44.029,71.634,46.349,115.865,38.743l14.655,47.419l-6.187,1.912l30.617,99.066l-150.323,155.702
				c-57.642-49.99-132.587-80.582-214.679-81.222l-2.563-0.01h-0.063c-88.136,0.007-171.157,34.209-233.766,96.307
				c-62.645,62.133-97.525,144.944-98.214,233.177c-1.387,183.099,146.412,333.214,329.469,334.64l2.651,0.01
				c88.137,0,171.163-34.2,233.784-96.301c60.612-60.107,95.137-139.575,97.96-224.563l76.297-1.553
				c2.87,14.282,8.781,27.435,16.926,38.891c8.24,11.588,18.82,21.354,31.091,28.641c8.126,4.825,16.972,8.523,26.365,10.945
				l-9.379,50.616l-1.781,9.608l-33.686-0.258v0.004l-0.225,27.218l75.576,0.585l0.227-27.217v-0.013l-28.87-0.221l1.78-9.606
				l6.31-34.048l0.917-4.949l1.717-9.264c1.153,0.146,2.31,0.269,3.474,0.376c0.369,0.034,0.746,0.035,1.116,0.065
				c2.481,0.202,4.959,0.418,7.489,0.438l0.014,0.001l0.716,0.002c55.89-0.003,101.362-45.05,101.795-101.008
				c0-0.003,0-0.006,0-0.01l0.005-1.062c-0.003-19.79-5.774-38.213-15.605-53.837l360.3-327.829l23.417,83.299
				c-49.481,15.802-94.904,43.123-132.827,80.735c-62.804,62.289-97.773,145.305-98.463,233.757
				c-1.392,183.542,146.768,334.013,330.273,335.432l2.639,0.01c88.363,0,171.589-34.281,234.348-96.528
				c62.79-62.278,97.754-145.29,98.453-233.743C1933.496,1563.629,1899.523,1479.771,1837.134,1416.406z M522.745,1363.446
				c67.926,0.535,129.855,25.335,177.868,66.096l-155.12,160.672c-7.41-3.582-15.677-5.676-24.451-5.745
				c-0.422-0.003-0.83,0.048-1.25,0.054v-221.067c0.246,0,0.488-0.018,0.734-0.018c0.74,0,1.479,0.003,2.217,0.009H522.745z
				 M574.656,1622.794c-0.933-2.647-2.003-5.229-3.297-7.682l155.092-160.644c40.121,44.067,66.203,100.959,71.483,163.782
				L574.656,1622.794z M506.867,1586.193c-9.87,2.43-18.748,7.376-25.877,14.181l-156.324-156.324
				c47.35-46.883,111.297-76.837,182.2-80.27V1586.193z M472.676,1610.339c-4.845,7.349-8.074,15.857-9.1,25.052H242.326
				c1.618-70.259,29.104-133.924,73.376-182.026L472.676,1610.339z M463.613,1648.315c1.028,9.179,4.195,17.717,9.047,25.068
				l-156.929,156.928c-44.326-48.172-71.795-111.873-73.394-181.996H463.613z M324.698,1839.623l156.319-156.32
				c7.121,6.792,15.973,11.762,25.849,14.19v222.378C435.827,1916.415,371.974,1886.441,324.698,1839.623z M519.791,1699.188
				c0.117,0.001,0.231,0.02,0.347,0.021c11.805,0.098,22.8-3.392,31.969-9.438l156.938,156.939
				c-49.643,45.677-115.756,73.546-188.412,73.551c-0.28,0-0.562-0.002-0.843-0.003V1699.188z M562.034,1681.419
				c6.077-6.365,10.723-14.099,13.377-22.73l223.249-4.543c-3.125,71.608-33.171,136.005-80.302,183.597L562.034,1681.419z
				 M928.059,1615.602l-76.399,1.555c-5.732-77.374-38.095-147.505-88.031-201.197l136.603-141.493l26.146,84.601l49.053,160.322
				l6.607,21.595c-4.026,2.072-7.895,4.389-11.587,6.961C948.2,1563.449,932.505,1587.62,928.059,1615.602z M958.762,1614.978
				l-18.548,0.377c3.157-17.199,11.161-32.643,22.559-44.921l40.742,40.742l0.349,1.14c-0.452,0.579-0.899,1.16-1.31,1.771
				L958.762,1614.978z M999.25,1597.235l-31.637-31.638c5.432-5.027,11.429-9.447,17.975-13.016L999.25,1597.235z M948.712,1672.605
				c-3.445-6.675-6.061-13.836-7.763-21.355l11.528-0.234l50.842-1.035c0.071,0.097,0.141,0.194,0.213,0.289l-41.487,41.487
				C956.822,1685.992,952.314,1679.584,948.712,1672.605z M986.906,1711.058c-7.369-3.865-14.105-8.728-20.086-14.4l41.383-41.383
				c1.988,1.699,4.201,3.13,6.575,4.293c0.409,0.2,0.806,0.42,1.225,0.602l-10.649,57.463l-0.102,0.55
				C998.822,1716.461,992.675,1714.084,986.906,1711.058z M1024.488,1721.148c-2.236-0.101-4.467-0.215-6.656-0.474l6.656-35.922
				V1721.148z M1024.488,1557.009l-4.557-14.892c1.501-0.141,3.034-0.163,4.557-0.229V1557.009z M1031.329,1721.201v-58.567
				c6.337-0.577,12.131-3.042,16.808-6.836l41.438,41.438C1074.187,1711.551,1053.808,1720.491,1031.329,1721.201z
				 M1045.361,1591.912l-4.413,4.015l9.532-51.435c4.757,1.196,9.395,2.692,13.817,4.613c6.129,2.663,11.854,6.046,17.181,9.945
				L1045.361,1591.912z M1031.329,1577.456v-35.64c2.194,0.066,4.383,0.154,6.535,0.375L1031.329,1577.456z M1094.398,1692.383
				l-41.467-41.466c3.717-4.683,6.113-10.448,6.641-16.764h58.6C1117.521,1656.645,1108.619,1676.988,1094.398,1692.383z
				 M1118.091,1627.311h-58.287l45.838-41.708C1112.99,1597.925,1117.43,1612.12,1118.091,1627.311z M1090.48,1550.859
				c-6.565-5.049-13.706-9.383-21.4-12.727c-5.247-2.281-10.753-4.053-16.415-5.431l13.702-73.943l32.506,0.253l0.237-27.222v-0.011
				l-72.621-0.566l-2.95-0.023l-0.24,27.233l30.046,0.234l-13.291,71.726c-3.527-0.396-7.102-0.632-10.728-0.658l-0.917-0.005
				c-4.078,0-8.079,0.31-12.031,0.777l-27.313-89.268l-20.791-67.954l0.07-0.021l-7.641-24.722l-27.82-90.926l12.141-0.11
				l67.336-0.607l76.126-0.686l5.136-0.046l12.525-0.113l75.34-0.679l236.098-2.128L1090.48,1550.859z M1554.27,1615.317
				c-6.356,8.366-10.474,18.505-11.442,29.585h-221.434c1.302-72.252,29.994-137.563,76.126-186.335L1554.27,1615.317z
				 M1543.169,1657.826c1.473,10.661,5.813,20.412,12.313,28.372l-156.575,156.576c-46.388-48.363-75.424-113.255-77.419-184.948
				H1543.169z M1408.07,1851.889l156.697-156.697c7.992,6.222,17.647,10.397,28.227,11.677v221.547
				C1521.267,1926.639,1456.472,1897.881,1408.07,1851.889z M1536.14,1378.731c18.325-4.296,37.338-6.77,56.854-7.249v221.565
				c-0.625,0.075-1.242,0.174-1.86,0.269l-41.205-146.575l4.94-1.388L1536.14,1378.731z M1801.891,1458.068
				c46.457,48.902,75.277,114.485,76.561,186.834h-221.367c-0.989-11.309-5.281-21.663-11.886-30.141L1801.891,1458.068z
				 M1792.773,1448.907l-156.6,156.601c-8.427-6.879-18.833-11.422-30.256-12.609v-221.458
				C1678.524,1372.983,1744.059,1402.174,1792.773,1448.907z M1791.319,1852.366c-48.641,45.989-113.672,74.57-185.401,76.067
				v-221.447c10.708-1.107,20.517-5.184,28.657-11.364L1791.319,1852.366z M1643.97,1686.739
				c6.733-8.049,11.249-17.994,12.754-28.913h221.657c-2.015,72.08-31.279,137.102-77.879,185.446L1643.97,1686.739z
				 M1531.816,1451.832l4.94-1.388l41.184,146.504c-5.392,2.241-10.351,5.302-14.767,8.994l-156.56-156.561
				c29.901-28.813,66.158-50.969,106.469-64.189L1531.816,1451.832z"/>
			<path style="fill:#3F1E31;" d="M1580.166,919.434c-24.715-0.206-44.918,19.692-45.112,44.419
				c-0.049,6.566,1.351,12.794,3.847,18.432c0.026,0.06,0.057,0.117,0.083,0.176c6.942,15.498,22.403,26.369,40.517,26.509
				c16.295,0.123,30.599-8.51,38.533-21.474c4.1-6.699,6.53-14.533,6.589-22.957C1624.808,939.82,1604.931,919.625,1580.166,919.434
				z"/>
		</g>
		<path style="fill:#587DBE;" d="M1186.322,1394.835c0,0-0.053-0.016-0.154-0.045c-0.96-0.284-6.379-1.908-13.705-4.448
			c0.312-0.924-0.015-1.963-0.89-2.474c-1.001-0.585-2.286-0.247-2.871,0.754l-0.19,0.325c-2.84-1.022-5.867-2.152-8.973-3.375
			c0.37-0.948,0.044-2.042-0.864-2.569c-1.003-0.582-2.287-0.241-2.869,0.762l-0.144,0.249c-2.883-1.185-5.782-2.441-8.62-3.75
			l0.381-0.651c0.585-1.001,0.247-2.286-0.753-2.871c-1.001-0.585-2.286-0.247-2.871,0.754l-0.56,0.958
			c-2.921-1.437-5.722-2.926-8.295-4.454l0.021-0.036c0.581-1.003,0.239-2.287-0.764-2.868c-0.967-0.56-2.181-0.247-2.789,0.674
			c-3.688-2.469-6.693-5.01-8.563-7.554c-0.002,0.005-0.004,0.01-0.005,0.015c-0.506-0.686-0.961-1.373-1.296-2.059
			c0,0-2.034-11.709-4.795-13.281c-2.057-1.186-4.199-1.253-6.446-0.588c-9.938,2.938-21.963,20.426-38.136,21.2
			c-19.882,0.941-7.567-18.785-14.336-26.581c-0.193-0.22-0.403-0.33-0.604-0.502c-6.882-5.891-18.058,15.802-18.058,15.802
			s-19.018,33.184-14.801,63.369l-0.02,0c0.213,1.573,0.49,3.15,0.829,4.716c0.358,1.654,0.786,3.296,1.307,4.908l72.621,0.566
			v0.011l13.09,0.102l95.044,0.745c0,0,0.047-0.065,0.126-0.179c0.003-0.004,0.003-0.004,0.006-0.009
			C1208.968,1430.155,1225.269,1405.147,1186.322,1394.835z"/>
		<path style="fill:#FDEBE9;" d="M1099.109,1431.777v0.011l13.09,0.102l95.044,0.745c0,0,0.047-0.065,0.126-0.179
			c0.003-0.004,0.003-0.004,0.006-0.009c0.588-0.853,3-4.552,4.115-9.424l-187.139-1.437c0.213,1.573,0.49,3.15,0.829,4.716
			c0.358,1.654,0.786,3.296,1.307,4.908L1099.109,1431.777z"/>
		<path style="fill:#395B8F;" d="M1159.438,1385.872l-5.888,10.145c3.347,0.7,6.671,1.27,9.855,1.675l5.107-8.746
			c-2.84-1.022-5.867-2.152-8.973-3.375C1159.501,1385.672,1159.494,1385.777,1159.438,1385.872z"/>
		<path style="fill:#395B8F;" d="M1123.581,1385.242l7.751-13.383c0.021-0.036,0.056-0.055,0.079-0.09
			c-3.688-2.469-6.693-5.01-8.563-7.554c-0.002,0.005-0.004,0.01-0.005,0.015C1120.57,1369.89,1117.732,1380.187,1123.581,1385.242z
			"/>
		<path style="fill:#395B8F;" d="M1139.894,1392.501c2.971,0.921,6.137,1.779,9.362,2.552l6.407-11.04
			c-2.883-1.185-5.782-2.441-8.62-3.75L1139.894,1392.501z"/>
		<path style="fill:#395B8F;" d="M1127.099,1387.545c2.337,1.197,5.302,2.431,8.714,3.62l7.426-12.712
			c-2.921-1.437-5.722-2.926-8.295-4.454L1127.099,1387.545z"/>
		<path style="fill:#395B8F;" d="M1172.328,1390.739l-4.336,7.426c5.486,0.411,10.21,0.183,13.183-1.023
			c1.878-0.78,3.581-1.546,5.219-2.281l-0.071-0.026c0,0-0.053-0.016-0.154-0.045c-0.96-0.284-6.379-1.908-13.705-4.448
			C1172.419,1390.475,1172.402,1390.613,1172.328,1390.739z"/>
		<path style="fill:#FDEBE9;" d="M1131.332,1371.859l-7.751,13.383l-2.235,3.859c-0.581,1.003-0.239,2.287,0.764,2.868
			c1.003,0.581,2.287,0.24,2.868-0.764l2.12-3.66l7.846-13.546l0.021-0.036c0.581-1.003,0.239-2.287-0.764-2.868
			c-0.967-0.56-2.181-0.247-2.789,0.674C1131.389,1371.804,1131.353,1371.823,1131.332,1371.859z"/>
		<path style="fill:#FDEBE9;" d="M1135.813,1391.165l-1.71,2.927c-0.585,1.001-0.247,2.286,0.753,2.871
			c1.001,0.585,2.286,0.247,2.871-0.753l2.166-3.708l7.149-12.238l0.381-0.651c0.585-1.001,0.247-2.286-0.753-2.871
			c-1.001-0.585-2.286-0.247-2.871,0.754l-0.56,0.958L1135.813,1391.165z"/>
		<path style="fill:#FDEBE9;" d="M1149.256,1395.053l-2.354,4.056c-0.582,1.003-0.241,2.287,0.762,2.869
			c1.003,0.582,2.287,0.24,2.869-0.762l3.017-5.2l5.888-10.145c0.055-0.095,0.063-0.2,0.102-0.3c0.37-0.948,0.044-2.042-0.864-2.569
			c-1.003-0.582-2.287-0.241-2.869,0.762l-0.144,0.249L1149.256,1395.053z"/>
		<path style="fill:#FDEBE9;" d="M1163.406,1397.692l-1.922,3.291c-0.585,1.001-0.247,2.286,0.754,2.871
			c1.001,0.585,2.286,0.247,2.871-0.754l2.882-4.935l4.336-7.426c0.074-0.126,0.091-0.264,0.136-0.397
			c0.312-0.924-0.015-1.963-0.89-2.474c-1.001-0.585-2.286-0.247-2.871,0.754l-0.19,0.325L1163.406,1397.692z"/>
		<path style="fill:#587DBE;" d="M1070.798,1753.229c0.002-0.001,0.003-0.002,0.005-0.003l-0.075-0.018c0,0-0.053-0.016-0.154-0.045
			c-0.03-0.009-0.094-0.028-0.132-0.039c-0.094-0.028-0.186-0.055-0.328-0.098c-0.329-0.099-0.806-0.244-1.378-0.42
			c-0.111-0.034-0.206-0.063-0.326-0.1c-0.27-0.083-0.576-0.178-0.887-0.276c-0.107-0.033-0.2-0.062-0.312-0.097
			c-2.466-0.773-6.088-1.945-10.349-3.424c0.329-0.932,0.003-1.988-0.882-2.503c-1.002-0.583-2.287-0.244-2.871,0.758l-0.202,0.347
			c-2.834-1.02-5.852-2.149-8.951-3.369c0.38-0.95,0.055-2.053-0.855-2.583c-1.001-0.584-2.286-0.245-2.87,0.757l-0.155,0.265
			c-2.895-1.191-5.808-2.452-8.658-3.769l0.373-0.646c0.581-1.003,0.238-2.287-0.765-2.868c-1.003-0.581-2.287-0.239-2.868,0.765
			l-0.542,0.936c-2.579-1.27-5.057-2.581-7.375-3.923c-0.37-0.03-0.747-0.031-1.116-0.065c-1.165-0.107-2.321-0.23-3.474-0.376
			c-4.294-0.543-8.479-1.399-12.585-2.459c-9.392-2.423-18.239-6.12-26.365-10.945c-5.955,4.464-12.602,8.466-20.159,8.828
			c-18.38,0.887-9.183-16.036-13.161-24.693c-0.311-0.677-0.68-1.317-1.171-1.88c-6.775-7.766-18.601,15.287-18.601,15.287
			s-19.055,33.167-14.863,63.35h-0.007c0.01,0.069,0.026,0.137,0.037,0.207c0.226,1.52,0.488,3.035,0.811,4.538
			c0.356,1.655,0.779,3.297,1.309,4.912l47.321,0.367v-0.004l33.686,0.258l13.022,0.1l28.87,0.221v0.013l57.807,0.449
			c0,0,0.05-0.069,0.1-0.141c0.018-0.026,0.023-0.033,0.047-0.068c0.08-0.115,0.19-0.277,0.324-0.484
			c0.018-0.027,0.036-0.058,0.055-0.087c0.116-0.182,0.253-0.404,0.397-0.644c0.048-0.08,0.092-0.153,0.143-0.24
			c0.168-0.286,0.348-0.605,0.537-0.955c0.051-0.095,0.103-0.199,0.155-0.298c0.15-0.286,0.303-0.594,0.458-0.915
			c0.069-0.143,0.135-0.278,0.204-0.427c0.189-0.408,0.377-0.842,0.562-1.295c0.07-0.173,0.137-0.352,0.206-0.531
			c0.133-0.345,0.261-0.704,0.386-1.07c0.068-0.198,0.136-0.389,0.2-0.593c0.156-0.497,0.298-1.014,0.428-1.541
			c0.025-0.102,0.058-0.194,0.082-0.296h-0.016C1097.942,1772.569,1095.795,1759.867,1070.798,1753.229z"/>
		<path style="fill:#FDEBE9;" d="M991.906,1790.202l1.781-9.608l-84.939-0.67h-0.007c0.01,0.069,0.026,0.137,0.037,0.207
			c0.226,1.52,0.488,3.035,0.811,4.538c0.356,1.655,0.779,3.297,1.309,4.912l47.321,0.367v-0.004L991.906,1790.202z"/>
		<path style="fill:#395B8F;" d="M1019.126,1732.812l-5.191,8.887l-0.917,4.949c2.077,0.963,4.509,1.937,7.229,2.884l7.37-12.731
			c-2.579-1.27-5.057-2.581-7.375-3.923C1019.872,1732.847,1019.495,1732.846,1019.126,1732.812z"/>
		<path style="fill:#395B8F;" d="M1043.858,1744.23l-5.908,10.142c3.353,0.701,6.681,1.272,9.871,1.676l5.087-8.737
			c-2.834-1.02-5.852-2.149-8.951-3.369C1043.919,1744.037,1043.912,1744.138,1043.858,1744.23z"/>
		<path style="fill:#395B8F;" d="M1056.737,1749.077l-4.333,7.441c5.483,0.407,10.204,0.174,13.18-1.039
			c1.873-0.75,3.568-1.511,5.214-2.249c0.002-0.001,0.003-0.002,0.005-0.003l-0.075-0.018c0,0-0.053-0.016-0.154-0.045
			c-0.03-0.009-0.094-0.028-0.132-0.039c-0.094-0.028-0.186-0.055-0.328-0.098c-0.329-0.099-0.806-0.244-1.378-0.42
			c-0.111-0.034-0.206-0.063-0.326-0.1c-0.27-0.083-0.576-0.178-0.887-0.276c-0.107-0.033-0.2-0.062-0.312-0.097
			c-2.466-0.773-6.088-1.945-10.349-3.424C1056.819,1748.832,1056.805,1748.96,1056.737,1749.077z"/>
		<path style="fill:#395B8F;" d="M1024.325,1750.866c2.962,0.917,6.115,1.772,9.328,2.542l6.424-11.027
			c-2.895-1.191-5.808-2.452-8.658-3.769L1024.325,1750.866z"/>
		<path style="fill:#FDEBE9;" d="M1019.126,1732.812c-1.165-0.107-2.321-0.23-3.474-0.376l-1.717,9.264L1019.126,1732.812z"/>
		<path style="fill:#FDEBE9;" d="M1020.247,1749.531l-1.694,2.926c-0.581,1.003-0.239,2.287,0.765,2.868
			c1.003,0.581,2.288,0.239,2.868-0.765l2.139-3.695l7.094-12.253l0.373-0.646c0.581-1.003,0.238-2.287-0.765-2.868
			c-1.003-0.581-2.287-0.239-2.868,0.765l-0.542,0.936L1020.247,1749.531z"/>
		<path style="fill:#FDEBE9;" d="M1033.653,1753.408l-2.354,4.041c-0.583,1.001-0.244,2.286,0.757,2.87
			c1.002,0.584,2.286,0.245,2.87-0.757l3.024-5.191l5.908-10.142c0.053-0.091,0.06-0.192,0.098-0.287
			c0.38-0.95,0.055-2.053-0.855-2.583c-1.001-0.584-2.286-0.245-2.87,0.757l-0.155,0.265L1033.653,1753.408z"/>
		<path style="fill:#FDEBE9;" d="M1047.821,1756.048l-1.922,3.3c-0.583,1.002-0.244,2.287,0.758,2.87
			c1.002,0.583,2.287,0.244,2.87-0.758l2.878-4.943l4.333-7.441c0.068-0.117,0.082-0.245,0.125-0.367
			c0.329-0.932,0.003-1.988-0.882-2.503c-1.002-0.583-2.287-0.244-2.871,0.758l-0.202,0.347L1047.821,1756.048z"/>
		<path style="fill:#9594B5;" d="M991.906,1790.202l13.022,0.1l1.78-9.606l6.31-34.048l0.917-4.949l1.717-9.264
			c-4.294-0.543-8.479-1.399-12.585-2.459l-9.379,50.616L991.906,1790.202z"/>
		<path style="fill:#DD885D;" d="M1099.109,1431.789v-0.011l-72.621-0.566c-0.521-1.611-0.949-3.254-1.307-4.908
			c-7.123-31.328,13.992-68.084,13.992-68.084s11.176-21.692,18.058-15.802c7.356-6.817,18.866-19.244,31.203-39.396
			c2.642-4.314,6.001-12.579,9.735-23.09c-1.502-8.043-3.027-16.013-4.551-23.776l-5.136,0.046l-76.126,0.686
			c-17.131,6.667-34.871,12.729-52.151,17.34l25.477,91.237l10.214,36.576l-6.834,39.186l27.313,89.268
			c3.952-0.467,7.953-0.777,12.031-0.777l0.917,0.005c-0.001,0-0.003,0-0.005,0l0.016,0h-0.01c3.626,0.026,7.202,0.262,10.728,0.658
			c4.302,0.484,8.489,1.316,12.611,2.319c5.662,1.377,11.168,3.15,16.415,5.431c18.385-42.313,34.79-81.838,43.12-106.241
			L1099.109,1431.789z"/>
		<path style="fill:#BA6946;" d="M985.683,1365.466c25.699-46.238,74.186-87.479,102.799-109.263l-76.126,0.686
			c-17.131,6.667-34.871,12.729-52.151,17.34L985.683,1365.466z"/>
		<path style="fill:#9594B5;" d="M1053.344,1458.656l-13.291,71.726c4.302,0.484,8.489,1.316,12.611,2.319l13.702-73.943
			L1053.344,1458.656z"/>
		<polygon style="fill:#3F1E31;" points="1098.872,1459.011 1099.109,1431.789 1099.109,1431.777 1026.488,1431.212 
			1023.538,1431.189 1023.297,1458.421 1053.344,1458.656 1066.366,1458.758 		"/>
		<path style="fill:#40577F;" d="M1076.797,1112.948c-2.5-9.494-4.955-18.297-7.315-26.423
			c-27.479-7.318-58.621-15.628-89.261-23.835c-0.214,1.055-0.383,2.096-0.74,3.189c0,0-64.677,7.374-107.882,16.282l14.029,45.395
			l6.187-1.912l15.133,48.965l0.945,3.058l20.499,44.074l164.177-1.48c2.292-1.199,4.484-2.36,6.539-3.463
			C1092.448,1177.102,1084.438,1141.963,1076.797,1112.948z"/>
		<path style="fill:#324868;" d="M1069.482,1086.526c-27.479-7.318-58.621-15.628-89.261-23.835
			c-0.214,1.055-0.383,2.096-0.74,3.189c0,0-64.677,7.374-107.882,16.282l14.029,45.395l6.187-1.912l15.133,48.965
			c54.073-39.98,143.469-57.273,169.848-61.661C1074.297,1103.455,1071.843,1094.652,1069.482,1086.526z"/>
		<path style="fill:#495F8F;" d="M1131.563,932.911c-1.007,0.099-2.056,0.161-3.174,0.16c0,0-11.097-1.382-29.283-4.209
			c-58.072-9.029-188.597-32.834-262.322-73.754c0,0-3.973-2.362-7.652-7.026c-8.312,14.878-12.242,24.621-12.242,24.621
			c-11.783,30.86-16.174,55.795-16.157,75.847c0.036,41.944,19.378,62.479,30.902,70.991c4.885,3.609,8.371,5.07,8.371,5.07
			c25.628,7.265,81.984,22.481,140.215,38.079c30.64,8.207,61.782,16.517,89.261,23.835c21.921,5.838,41.514,11.046,56.616,15.057
			c3.899-4.122,7.72-8.32,11.474-12.574c13.881-15.725,26.651-32.402,37.232-50.555c8.908-15.282,22.527-41.278,30.054-61.63
			c1.682-4.55,3.068-8.825,4.02-12.627C1182.813,951.23,1155.193,940.768,1131.563,932.911z"/>
		<path style="fill:#F6AC8F;" d="M1440.177,413.353c-4.263-2.569-7.922-5.652-10.075-7.611c2.299-5.963,3.461-12.475,3.196-19.267
			c-1.04-26.689-23.53-47.497-50.231-46.455c-26.7,1.04-47.502,23.529-46.461,50.227c1.041,26.697,23.529,47.504,50.233,46.463
			c14.166-0.552,26.63-7.18,35.093-17.235c2.264,3.995,5.889,7.949,11.403,10.696c19.064,9.498,26.485-8.77,26.485-8.77
			C1462.374,413.002,1445.765,416.72,1440.177,413.353z"/>
		<path style="fill:#FDFDFD;" d="M1428.045,403.781c0,0-4.911-4.362-8.281,2.078c-1.399,2.671-0.911,8.182,2.168,13.616
			c2.264,3.995,5.889,7.949,11.403,10.696c19.064,9.498,26.485-8.77,26.485-8.77c2.554-8.398-14.055-4.68-19.643-8.047
			c-4.263-2.569-7.922-5.652-10.075-7.611C1428.799,404.557,1428.045,403.781,1428.045,403.781z"/>
	</g>
	<path style="fill:#DD885D;" d="M1024.488,1541.889c-1.522,0.066-3.055,0.088-4.557,0.229l4.557,14.892V1541.889z"/>
	<path style="fill:#DD885D;" d="M1014.777,1659.569c-2.374-1.163-4.587-2.594-6.575-4.293l-41.383,41.383
		c5.981,5.672,12.717,10.535,20.086,14.4c2.033-1.506,3.98-2.763,5.851-3.62C998.283,1695.507,1005.939,1678.913,1014.777,1659.569z
		"/>
	<path style="fill:#DD885D;" d="M1002.554,1614.087c0.411-0.611,0.858-1.192,1.31-1.771l-0.349-1.14l-37.543-37.543l-7.21,41.345
		L1002.554,1614.087z"/>
	<path style="fill:#DD885D;" d="M1003.532,1650.271c-0.072-0.096-0.142-0.193-0.213-0.289l-50.842,1.035l-3.765,21.589
		c3.602,6.979,8.11,13.387,13.332,19.153L1003.532,1650.271z"/>
	<path style="fill:#DD885D;" d="M1045.361,1591.912c6.324-14.158,12.71-28.576,18.935-42.807c-4.422-1.922-9.06-3.417-13.817-4.613
		l-9.532,51.435L1045.361,1591.912z"/>
	<path style="fill:#DD885D;" d="M982.039,1540.985l-6.607-21.595l-4.98,28.556C974.144,1545.375,978.013,1543.057,982.039,1540.985z
		"/>
	<path style="fill:#DD885D;" d="M1031.329,1577.456l6.535-35.264c-2.152-0.222-4.341-0.309-6.535-0.375V1577.456z"/>
	<path style="fill:#DD885D;" d="M956.543,1727.859c7.556-0.361,14.203-4.364,20.159-8.828
		c-12.271-7.287-22.851-17.053-31.091-28.641l-2.228,12.776C947.36,1711.823,938.164,1728.746,956.543,1727.859z"/>
	<path style="fill:#DD885D;" d="M999.25,1597.235l-13.662-44.654c-6.546,3.569-12.543,7.99-17.975,13.016L999.25,1597.235z"/>
	<path style="fill:#587DBE;" d="M1001.161,1707.262c-2.644-1.527-5.433-1.187-8.404,0.176c-1.871,0.857-3.818,2.114-5.851,3.62
		c5.769,3.025,11.916,5.403,18.346,7.125l0.102-0.55C1004.554,1714.065,1003.018,1708.335,1001.161,1707.262z"/>
	<path style="fill:#40577F;" d="M960.206,1274.229c17.28-4.612,35.02-10.673,52.151-17.34l-67.336,0.607l8.588,18.463
		C955.794,1275.421,958.003,1274.818,960.206,1274.229z"/>
	<path style="fill:#9594B5;" d="M1017.831,1720.673l6.656-35.922v-22.26c-2.981-0.382-5.833-1.164-8.486-2.321l-10.649,57.463
		l-0.102,0.55C1009.345,1719.281,1013.525,1720.161,1017.831,1720.673z"/>
	<path style="fill:#9594B5;" d="M1031.329,1579.37l6.058,19.797l3.561-3.24l9.532-51.435c-4.111-1.033-8.301-1.857-12.615-2.3
		l-6.535,35.264V1579.37z"/>
	<path style="fill:#3F1E31;" d="M1837.134,1416.406c-62.384-63.36-145.705-98.638-234.614-99.337l-2.544-0.01h-0.065
		c-26.78,0.002-53.075,3.201-78.486,9.325l7.753,27.58c22.724-5.417,46.394-8.363,70.744-8.361c0.797,0,1.598,0.003,2.399,0.009
		c83.602,0.641,159.174,34.993,213.713,90.01c54.56,54.997,88.253,130.821,88.248,214.279c0,0.809-0.003,1.617-0.01,2.425v0.001
		c-1.308,167.253-137.274,301.949-304.24,301.958c-0.816,0-1.629-0.003-2.444-0.009c-83.598-0.644-159.179-34.998-213.731-90.017
		c-54.571-54.999-88.278-130.827-88.272-214.29c0-0.793,0.003-1.591,0.009-2.392v0.005c0.643-83.608,35.007-159.184,90.034-213.726
		c33.444-33.175,74.618-58.569,120.491-73.431l-7.746-27.554c-49.481,15.802-94.904,43.123-132.827,80.735
		c-62.804,62.289-97.773,145.305-98.463,233.757c-1.392,183.542,146.768,334.013,330.273,335.432l2.639,0.01
		c88.363,0,171.589-34.281,234.348-96.528c62.79-62.278,97.754-145.29,98.453-233.743
		C1933.496,1563.629,1899.523,1479.771,1837.134,1416.406z"/>
	<path style="fill:#3F1E31;" d="M1591.133,1593.316l13.12,46.671c1.023,3.637-1.097,7.416-4.735,8.438
		c-3.638,1.023-7.416-1.098-8.438-4.735l-13.14-46.742c-5.392,2.241-10.351,5.302-14.767,8.994l-156.56-156.561
		c-0.953,0.918-1.945,1.795-2.885,2.727c-2.12,2.103-4.156,4.288-6.208,6.457l156.75,156.75
		c-6.356,8.366-10.474,18.505-11.442,29.585h-221.434c-0.017,0.964-0.087,1.914-0.095,2.881v0.005
		c-0.006,0.724-0.009,1.452-0.009,2.182c0.001,2.635,0.125,5.239,0.198,7.856h221.681c1.473,10.661,5.813,20.412,12.313,28.372
		l-156.575,156.576c1.075,1.121,2.107,2.282,3.2,3.385c1.942,1.957,3.963,3.832,5.962,5.73l156.697-156.697
		c7.992,6.222,17.647,10.397,28.227,11.677v221.547c1.6,0.039,3.183,0.145,4.79,0.158c0.753,0.005,1.503,0.009,2.249,0.009
		c1.974,0,3.921-0.107,5.885-0.148v-221.447c10.708-1.107,20.517-5.184,28.657-11.364l156.745,156.744
		c1.618-1.53,3.272-3.022,4.854-4.59c1.479-1.467,2.884-3.005,4.33-4.505l-156.532-156.533c6.733-8.049,11.249-17.994,12.754-28.913
		h221.657c0.053-1.901,0.173-3.786,0.188-5.697l0,0c0.005-0.744,0.008-1.486,0.008-2.227c0-1.677-0.096-3.33-0.126-5h-221.367
		c-0.989-11.309-5.281-21.663-11.886-30.141l156.693-156.693c-1.373-1.445-2.704-2.93-4.108-4.346
		c-1.631-1.644-3.338-3.212-5.01-4.815l-156.6,156.601c-8.427-6.879-18.833-11.422-30.256-12.609v-221.458
		c-1.27-0.027-2.525-0.115-3.8-0.125c-0.73-0.006-1.462-0.009-2.196-0.009c-2.323,0-4.618,0.118-6.928,0.174v221.565
		C1592.369,1593.122,1591.751,1593.22,1591.133,1593.316z"/>
	<path style="fill:#3F1E31;" d="M851.66,1617.157c-5.732-77.374-38.095-147.505-88.031-201.197l-19.324,20.016
		c44.773,48.628,73.846,111.936,79.34,181.751L851.66,1617.157z"/>
	<path style="fill:#3F1E31;" d="M734.737,1857.753c-54.952,54.521-130.714,88.197-214.103,88.191c-0.805,0-1.607-0.003-2.408-0.009
		h-0.006c-83.527-0.641-159.04-34.967-213.54-89.94c-54.52-54.954-88.193-130.719-88.187-214.11c0-0.797,0.003-1.595,0.009-2.394
		c1.308-167.13,137.182-301.727,304.023-301.736c0.802,0,1.608,0.003,2.417,0.009l-0.226-0.002l0.233,0.002h-0.007h0.003
		c74.703,0.577,142.944,28.148,195.526,73.28l19.338-20.03c-57.642-49.99-132.587-80.582-214.679-81.222l-2.563-0.01h-0.063
		c-88.136,0.007-171.157,34.209-233.766,96.307c-62.645,62.133-97.525,144.944-98.214,233.177
		c-1.387,183.099,146.412,333.214,329.469,334.64l2.651,0.01c88.137,0,171.163-34.2,233.784-96.301
		c60.612-60.107,95.137-139.575,97.96-224.563l-28.021,0.57C821.317,1733.391,787.631,1805.311,734.737,1857.753z"/>
	<path style="fill:#D4263F;" d="M1513.082,1385.192l18.734,66.64l4.94-1.388l13.172-3.703l4.94-1.388l-18.728-66.622l-6.962-24.766
		l-7.753-27.58l-60.862-216.5l-22.949,6.849l28.192,100.282c-0.506-0.039-1.005-0.108-1.518-0.103l-255.41,2.302l-91.649,0.826
		l-24.659,0.222l-164.177,1.48l-6.858,0.062l-13.64-44.136l-0.945-3.058l-15.133-48.965l-6.187,1.912l-21.928,6.777l-6.187,1.912
		l30.617,99.066l-150.323,155.702l-19.338,20.03l-17.859,18.498l-155.12,160.672c11.056,5.344,20.154,14.075,25.866,24.899
		l155.092-160.644l17.854-18.493l19.324-20.016l136.603-141.493l26.146,84.601l49.053,160.322l6.607,21.595
		c10.518-5.412,22.083-9.041,34.337-10.489l-27.313-89.268l-20.791-67.954l0.07-0.021l-7.641-24.722l-27.82-90.926l12.141-0.11
		l67.336-0.607l76.126-0.686l5.136-0.046l12.525-0.113l75.34-0.679l236.098-2.128l-327.1,297.622
		c9.551,7.346,17.744,16.318,24.177,26.542l360.3-327.829l23.417,83.299l7.746,27.554L1513.082,1385.192z"/>
	<path style="fill:#D4263F;" d="M1052.234,1611.244c3.806,4.454,6.36,9.983,7.169,16.067h0.4l45.838-41.708
		c-3.405-5.71-7.4-11.016-11.95-15.817L1052.234,1611.244z"/>
	<path style="fill:#D4263F;" d="M1040.948,1595.927l-3.561,3.24l-6.058-19.797v21.051c5.947,0.536,11.398,2.743,15.912,6.141
		l41.543-41.543c-2.331-2.113-4.763-4.106-7.307-5.968l-36.117,32.862L1040.948,1595.927z"/>
	<path style="fill:#D4263F;" d="M1009.059,1607.045c4.349-3.459,9.642-5.757,15.429-6.492v-43.544l-4.557-14.892
		c-12.347,1.159-23.965,4.805-34.344,10.464l13.662,44.654L1009.059,1607.045z"/>
	<path style="fill:#D4263F;" d="M926.669,1630.693l0,0.006l0.001-0.031c0.054-5.135,0.607-10.139,1.39-15.066l-76.399,1.555
		l-28.015,0.57l-25.71,0.523l-223.279,4.543c2.151,6.101,3.36,12.642,3.306,19.484c-0.047,5.713-0.954,11.214-2.552,16.411
		l223.249-4.543l25.706-0.523l28.021-0.57l76.297-1.553c-1.32-6.566-2.018-13.355-2.017-20.307L926.669,1630.693z"/>
	<path style="fill:#D4263F;" d="M997.532,1627.311c0.663-4.85,2.412-9.347,5.022-13.224l-43.792,0.891l-18.548,0.377
		c-0.717,3.903-1.164,7.893-1.362,11.956H997.532z"/>
	<path style="fill:#D4263F;" d="M1003.319,1649.981c-3.315-4.513-5.465-9.93-5.973-15.829h-58.557
		c0.19,5.858,0.909,11.573,2.16,17.098l11.528-0.234L1003.319,1649.981z"/>
	<path style="fill:#3F1E31;" d="M871.6,1082.162c43.205-8.909,107.882-16.282,107.882-16.282c0.357-1.093,0.525-2.134,0.74-3.189
		c-58.231-15.599-114.587-30.815-140.215-38.079c0,0-3.486-1.462-8.371-5.07c-69.787-5.243-98.84-6.978-98.455,28.631
		c0.492,44.029,71.634,46.349,115.865,38.743c4.007-0.689,7.814-1.452,11.307-2.28C863.873,1083.8,867.656,1082.975,871.6,1082.162z
		"/>
	<polygon style="fill:#3F1E31;" points="1004.929,1790.301 991.906,1790.202 958.22,1789.944 958.22,1789.948 957.995,1817.166 
		1033.571,1817.751 1033.798,1790.535 1033.798,1790.522 	"/>
	<path style="fill:#D86D4B;" d="M836.784,855.107c73.724,40.92,204.25,64.726,262.322,73.754
		c18.186,2.828,29.283,4.209,29.283,4.209c1.119,0.001,2.168-0.06,3.174-0.16c13.754-1.354,17.365-11.597,18.558-19.963
		c1.286-8.977,14.07-69.685,24.338-92.765c5.192-11.672,29.161-34.422,51.594-54.068c-8.478-20.577-14.563-35.443-14.563-35.443
		s-31.944,37.629-62.773,36.991c-87.568-1.81-15.569-114.095-15.569-114.095s97.953-147.386,146.159-69.423
		c8.161,13.198,15.976,30.181,23.288,49.066c-1.6-34.322-12.324-61.438-12.324-61.438c-0.097-0.026-0.193-0.071-0.289-0.098
		c-43.354-11.903-83.567-126.386-83.567-126.386l-0.008-0.001c-123.097-16.084-192.318,47.506-308.733,266.233
		c0,0-29.902,53.471-60.89,89.375c-19.889,23.044-14.245,38.827-7.652,47.186C832.811,852.745,836.784,855.107,836.784,855.107z"/>
	<path style="fill:#3F1E31;" d="M562.034,1681.419c6.077-6.365,10.723-14.099,13.377-22.73c1.597-5.197,2.505-10.698,2.552-16.411
		c0.054-6.841-1.155-13.383-3.306-19.484c-0.933-2.647-2.003-5.229-3.297-7.682c-5.712-10.823-14.81-19.555-25.866-24.899
		c-7.41-3.582-15.677-5.676-24.451-5.745c-0.422-0.003-0.83,0.048-1.25,0.054v-221.067c-4.332,0.011-8.641,0.119-12.925,0.326
		v222.412c-9.87,2.43-18.748,7.376-25.877,14.181l-156.324-156.324c-0.046,0.046-0.096,0.088-0.142,0.134
		c-3.013,2.989-5.948,6.056-8.823,9.18l156.975,156.975c-4.845,7.349-8.074,15.857-9.1,25.052H242.326
		c-0.033,1.437-0.131,2.857-0.142,4.3c-0.006,0.731-0.009,1.463-0.009,2.194c0,2.157,0.113,4.286,0.162,6.431h221.276
		c1.028,9.179,4.195,17.717,9.047,25.068l-156.929,156.928c2.36,2.565,4.73,5.122,7.184,7.597c0.58,0.585,1.197,1.134,1.783,1.714
		l156.319-156.32c7.121,6.792,15.973,11.762,25.849,14.19v222.378c3.835,0.187,7.677,0.35,11.552,0.381h-0.005
		c0.461,0.004,0.919,0.004,1.378,0.005v-221.069c0.117,0.001,0.231,0.02,0.347,0.021c11.805,0.098,22.8-3.392,31.969-9.438
		l156.938,156.939c2.567-2.363,5.127-4.734,7.605-7.191c0.583-0.578,1.129-1.192,1.706-1.775L562.034,1681.419z"/>
	<path style="fill:#381D1F;" d="M1456.94,339.983c-3.751,0-6.792,4.116-6.792,9.193s3.041,9.194,6.792,9.194
		c3.751,0,6.792-4.116,6.792-9.194S1460.691,339.983,1456.94,339.983z"/>
	<path style="fill:#421C21;" d="M1437.333,327.838c14.971-10.673,20.723-3.375,28.155-7.545c6.871-3.854-0.081-7.241-0.081-7.241
		c-24.769-6.007-35.48,11.453-33.37,14.94C1434.148,331.473,1437.333,327.838,1437.333,327.838z"/>
	<path style="fill:#421C21;" d="M1275.082,370.443c5.433-19.318,6.037-31.391,4.829-45.276
		c-1.207-13.884,2.688-31.391,13.719-31.995c11.031-0.603,20.593,8.925,24.916,21.129c0,0,14.31,41.654,18.021,44.069
		c3.711,2.415-1.297-15.48,0-28.869c1.297-13.389,14.577-15.803,16.992-36.932c2.415-21.129,18.175-3.019,35.046-17.507
		c16.871-14.488,18.078-27.165,37.999-27.769c19.892-0.603,24.739,16.294,37.074,11.209c0.018-0.008,0.034-0.009,0.052-0.017
		c0,0,27.467-2.741,28.675-34.132c1.207-31.391-12.362-70.384-39.784-79.439c-27.422-9.056-43.784-7.991-67.671,0
		c-18.37,6.145-53.671,8.452-66.952,6.037c-13.28-2.415-67.668,2.169-77.931,29.334c0,0-22.336,19.317-27.769,37.427
		c-5.433,18.111-8.452,59.16-3.018,86.326c5.43,27.149,24.782,98.36,36.987,98.295c0.007,0,0.015,0.003,0.022,0.003
		C1252.317,402.264,1269.649,389.761,1275.082,370.443z"/>
	<path style="fill:#EA9878;" d="M1315.529,363.088c4.829-5.544,1.811-9.548-2.476-13.912c-4.287-4.364-4.768-10.728-1.146-19.675
		c3.622-8.948-1.812-21.84-9.699-25.462c-7.888-3.622-15.052,7.767-15.052,7.767c-5.433,13.804,7.244,30.869,10.046,37.371
		C1300.005,355.678,1310.7,368.632,1315.529,363.088z"/>
	<path style="fill:#EA9878;" d="M1302.816,442.925c0,0-6.63-18.956-7.422-30.628c-0.792-11.67-14.476,35.416-6.426,71.234
		c5.818,25.887,18.359,47.925,24.884,58.192c10.623-12.326,22.59-24.917,35.58-36.46c0,0,8.045-4.162,38.778-5.936
		C1369.371,492.413,1321.507,472.515,1302.816,442.925z"/>
	<polygon style="fill:#342649;" points="1431.349,1102.643 1435.722,1117.297 1437.614,1116.733 1460.563,1109.884 
		1462.105,1109.424 1457.731,1094.77 1451.506,1096.628 1438.392,1100.541 	"/>
	<path style="fill:#C16F57;" d="M1197.09,699.823c-8.691-13.267-21.53-29.387-38.56-40.758c-1.965-1.31-4.62-0.779-5.929,1.186
		c-1.31,1.965-0.779,4.62,1.186,5.929c15.569,10.362,27.859,25.633,36.146,38.324c4.149,6.342,7.307,12.029,9.416,16.111
		c1.055,2.041,1.849,3.68,2.373,4.8c0.263,0.56,0.458,0.989,0.586,1.274l0.18,0.406c0.933,2.17,3.448,3.172,5.618,2.239
		c2.17-0.933,3.172-3.449,2.239-5.618C1210.275,723.558,1205.77,713.097,1197.09,699.823z"/>
	<path style="fill:#364E72;" d="M1099.109,928.862l-0.002-0.001c-58.072-9.029-188.597-32.834-262.322-73.754
		c0,0-3.973-2.362-7.652-7.026c-8.312,14.878-12.242,24.621-12.242,24.621c-11.783,30.86-16.174,55.795-16.157,75.847
		C849.107,897.356,1099.109,928.862,1099.109,928.862z"/>
	<path style="fill:#5F4E7C;" d="M1579.679,987.695c12.96,0.102,23.545-10.335,23.641-23.316c0.131-12.973-10.33-23.553-23.293-23.68
		c-12.988-0.083-23.589,10.343-23.667,23.316C1556.237,976.991,1566.699,987.593,1579.679,987.695z"/>
</g>
</svg>
