<svg xmlns="http://www.w3.org/2000/svg" xmlns:xlink="http://www.w3.org/1999/xlink" width="50" zoomAndPan="magnify" viewBox="0 0 37.5 74.999997" height="100" preserveAspectRatio="xMidYMid meet" version="1.0"><defs><clipPath id="761383c63c"><path d="M 0 1.269531 L 37.007812 1.269531 L 37.007812 74.503906 L 0 74.503906 Z M 0 1.269531 " clip-rule="nonzero"/></clipPath><clipPath id="8ac224229e"><path d="M 24 65 L 37.007812 65 L 37.007812 73.503906 L 24 73.503906 Z M 24 65 " clip-rule="nonzero"/></clipPath><clipPath id="76914b9a0c"><path d="M 26 69 L 37.007812 69 L 37.007812 73.503906 L 26 73.503906 Z M 26 69 " clip-rule="nonzero"/></clipPath><clipPath id="0033c885d2"><path d="M 0 63 L 10 63 L 10 73.503906 L 0 73.503906 Z M 0 63 " clip-rule="nonzero"/></clipPath><clipPath id="8954067b7c"><path d="M 0 68 L 10 68 L 10 73.503906 L 0 73.503906 Z M 0 68 " clip-rule="nonzero"/></clipPath><clipPath id="e192da3f39"><path d="M 5 72 L 10 72 L 10 73.503906 L 5 73.503906 Z M 5 72 " clip-rule="nonzero"/></clipPath><clipPath id="5d99dcf34d"><path d="M 5 0.269531 L 24 0.269531 L 24 17 L 5 17 Z M 5 0.269531 " clip-rule="nonzero"/></clipPath><clipPath id="357bc39a0b"><rect x="0" width="38" y="0" height="74"/></clipPath></defs><g clip-path="url(#761383c63c)"><g transform="matrix(1, 0, 0, 1, 0, 1)"><g clip-path="url(#357bc39a0b)"><path fill="#a57752" d="M 16.511719 15.042969 L 16.425781 16.21875 L 14.253906 16.910156 C 14.253906 16.910156 14.285156 16.53125 14.332031 16.074219 C 14.390625 15.492188 13.765625 15.335938 11.886719 14.363281 C 7.996094 12.347656 7.539062 11.339844 7.003906 9.5 C 5.386719 3.929688 9.996094 0.429688 15.960938 1.109375 C 21.167969 1.703125 18.25 7.984375 17.804688 10.003906 Z M 16.511719 15.042969 " fill-opacity="1" fill-rule="nonzero"/><path fill="#916a48" d="M 13.28125 19.339844 C 13.28125 19.339844 14.726562 12.984375 15.769531 13.183594 C 15.769531 13.183594 19.566406 15.527344 19.898438 16.554688 C 19.914062 16.605469 20.015625 16.570312 19.945312 16.882812 C 19.585938 16.914062 18.589844 16.421875 18.355469 16.878906 C 18.121094 17.34375 16.882812 20.539062 16.550781 21.441406 C 15.242188 20.808594 13.074219 19.835938 13.28125 19.339844 Z M 13.28125 19.339844 " fill-opacity="1" fill-rule="nonzero"/><path fill="#916a48" d="M 9.324219 27.371094 C 9.59375 26.011719 11.457031 26.769531 11.964844 27.828125 L 11.964844 31.085938 C 11.855469 35.105469 12.308594 36.554688 12.34375 37.328125 C 12.238281 37.539062 12.082031 37.707031 11.816406 37.761719 C 11.527344 37.820312 11.277344 37.722656 11.058594 37.558594 C 10.839844 37.308594 10.667969 36.835938 10.398438 35.789062 C 10.074219 34.507812 9.722656 32.804688 9.542969 31.496094 C 9.476562 31 8.835938 28.460938 9.324219 27.371094 Z M 9.324219 27.371094 " fill-opacity="1" fill-rule="nonzero"/><path fill="#916a48" d="M 11.21875 29.796875 C 11.21875 29.796875 14.121094 22.144531 14.710938 20.503906 C 14.710938 20.503906 12.699219 18.816406 12.152344 19.546875 L 9.21875 27.648438 C 9.207031 29.828125 10.703125 30.042969 11.21875 29.796875 Z M 11.21875 29.796875 " fill-opacity="1" fill-rule="nonzero"/><path fill="#916a48" d="M 10.378906 37.851562 C 10.390625 37.324219 10.414062 36.625 10.628906 36.136719 C 10.632812 36.125 10.640625 36.113281 10.644531 36.101562 C 10.75 35.894531 10.941406 35.71875 11.148438 35.628906 C 11.328125 35.546875 11.539062 35.511719 11.734375 35.464844 C 11.785156 35.464844 11.835938 35.464844 11.886719 35.472656 C 12.265625 35.523438 12.628906 35.65625 12.957031 35.851562 C 13.59375 36.234375 13.707031 36.796875 13.914062 37.449219 C 14.003906 37.730469 14.132812 37.992188 14.285156 38.238281 C 14.292969 38.253906 14.304688 38.273438 14.3125 38.289062 C 14.425781 38.472656 14.550781 38.652344 14.683594 38.832031 C 14.730469 38.898438 14.792969 38.980469 14.851562 39.070312 C 14.984375 39.339844 15.078125 39.777344 14.964844 40.070312 C 14.949219 40.085938 14.925781 40.097656 14.902344 40.113281 C 14.765625 40.089844 14.707031 39.953125 14.601562 39.859375 C 14.390625 39.671875 14.21875 39.464844 14.066406 39.230469 C 14 39.132812 13.953125 39.023438 13.917969 38.910156 C 13.890625 38.824219 13.734375 39.285156 13.726562 39.554688 C 13.710938 40.132812 13.992188 40.65625 14.15625 41.195312 C 14.246094 41.492188 14.296875 41.816406 14.285156 42.128906 C 14.277344 42.355469 14.15625 42.589844 13.894531 42.480469 C 13.710938 42.402344 13.574219 42.144531 13.527344 41.960938 C 13.4375 41.589844 13.433594 41.191406 13.296875 40.835938 C 13.324219 40.90625 13.269531 41.117188 13.277344 41.207031 C 13.28125 41.332031 13.296875 41.457031 13.304688 41.582031 C 13.3125 41.742188 13.273438 42.898438 12.933594 42.601562 C 12.707031 42.410156 12.628906 42.035156 12.605469 41.753906 C 12.609375 41.921875 12.570312 42.6875 12.246094 42.417969 C 12.121094 42.3125 12.0625 42.160156 12.019531 42.003906 C 11.9375 41.699219 11.828125 41.410156 11.71875 41.117188 C 11.707031 41.160156 11.777344 41.273438 11.792969 41.320312 C 11.902344 41.625 11.839844 42.007812 11.824219 42.003906 C 11.289062 41.894531 10.9375 40.324219 10.765625 39.898438 C 10.507812 39.253906 10.363281 38.546875 10.378906 37.851562 Z M 10.378906 37.851562 " fill-opacity="1" fill-rule="nonzero"/><path fill="#004966" d="M 18.265625 36.3125 C 17.933594 36.785156 17.398438 37.320312 16.632812 37.371094 L 16.964844 36.3125 Z M 18.265625 36.3125 " fill-opacity="1" fill-rule="nonzero"/><path fill="#916a48" d="M 20.78125 36.3125 C 20.875 37.191406 20.992188 38.097656 21.09375 38.472656 C 21.941406 41.527344 24.253906 47.960938 25.054688 52.195312 C 26.378906 59.160156 28.617188 69.359375 28.617188 69.359375 C 28.617188 69.359375 28.246094 70.113281 26.339844 69.90625 L 22.636719 61.140625 L 20.839844 51.8125 C 20.839844 51.8125 13.640625 41.878906 11.742188 36.3125 Z M 20.78125 36.3125 " fill-opacity="1" fill-rule="nonzero"/><path fill="#916a48" d="M 18.585938 46.945312 C 18.300781 47.050781 18.011719 47.15625 17.722656 47.257812 C 15.527344 43.914062 12.804688 39.425781 11.742188 36.3125 L 20.78125 36.3125 C 20.875 37.191406 20.992188 38.097656 21.09375 38.472656 C 21.515625 39.980469 22.289062 42.316406 23.066406 44.804688 C 21.746094 45.792969 20.113281 46.375 18.585938 46.945312 Z M 18.585938 46.945312 " fill-opacity="0.3" fill-rule="nonzero"/><path fill="#a57752" d="M 5.871094 55.96875 L 10.378906 50.625 C 10.378906 50.625 10.832031 40.777344 11.65625 36.3125 L 20.839844 36.3125 C 19.976562 39.46875 17.941406 45.578125 13.964844 51.796875 C 11.160156 56.183594 3.273438 68.078125 3.273438 68.078125 C 3.273438 68.078125 1.800781 68.136719 1.328125 67.011719 Z M 5.871094 55.96875 " fill-opacity="1" fill-rule="nonzero"/><path fill="#916a48" d="M 15.035156 47.148438 C 14.238281 46.941406 13.4375 46.769531 12.636719 46.582031 C 11.976562 46.429688 11.304688 46.265625 10.644531 46.066406 C 10.859375 42.882812 11.199219 38.777344 11.65625 36.3125 L 20.839844 36.3125 C 20.179688 38.722656 18.839844 42.851562 16.472656 47.441406 C 15.964844 47.402344 15.441406 47.253906 15.035156 47.148438 Z M 15.035156 47.148438 " fill-opacity="1" fill-rule="nonzero"/><path fill="#004966" d="M 22.136719 43.101562 C 21.484375 43.570312 20.8125 44.027344 20.105469 44.414062 C 19.050781 44.996094 17.589844 45.710938 16.402344 45.972656 C 14.523438 42.644531 11.5625 39.058594 11.710938 35.511719 L 20.75 35.511719 C 20.84375 36.394531 20.960938 37.300781 21.066406 37.671875 C 21.402344 38.894531 22.050781 40.675781 22.761719 42.648438 C 22.550781 42.808594 22.335938 42.957031 22.136719 43.101562 Z M 22.136719 43.101562 " fill-opacity="1" fill-rule="nonzero"/><path fill="#00354e" d="M 22.90625 42.390625 C 22.90625 42.390625 18.253906 45.164062 15.832031 45.085938 L 16.550781 46.441406 C 16.550781 46.441406 19.257812 45.605469 23.183594 43.539062 Z M 22.90625 42.390625 " fill-opacity="1" fill-rule="nonzero"/><path fill="#026188" d="M 16.003906 45.441406 C 15.242188 45.332031 14.484375 45.199219 13.75 44.976562 C 12.480469 44.597656 11.269531 44.035156 10.207031 43.25 C 10.710938 40.539062 11.277344 37.484375 11.65625 35.4375 L 20.839844 35.4375 C 20.214844 37.722656 19.519531 41.273438 17.785156 45.480469 C 17.203125 45.589844 16.570312 45.519531 16.003906 45.441406 Z M 16.003906 45.441406 " fill-opacity="1" fill-rule="nonzero"/><path fill="#004966" d="M 18.03125 45.246094 C 18.03125 45.246094 11.949219 43.894531 10.207031 42.566406 L 9.902344 43.925781 C 9.902344 43.925781 13.042969 46.054688 17.464844 46.441406 Z M 18.03125 45.246094 " fill-opacity="1" fill-rule="nonzero"/><path fill="#004966" d="M 11.589844 36.34375 C 11.589844 36.34375 12.980469 36.941406 13.777344 36.917969 C 13.777344 36.917969 13.046875 40.089844 12.5 41.1875 L 10.742188 41.382812 C 10.742188 41.382812 11.195312 37.945312 11.589844 36.34375 Z M 11.589844 36.34375 " fill-opacity="1" fill-rule="nonzero"/><g clip-path="url(#8ac224229e)"><path fill="#5b3512" d="M 24.691406 66.511719 C 24.734375 66.355469 24.863281 66.300781 24.996094 66.230469 C 25.300781 66.074219 25.628906 65.945312 25.941406 65.804688 C 26.414062 65.59375 26.980469 65.355469 27.5 65.324219 C 27.757812 65.3125 27.910156 65.414062 28.019531 65.597656 C 28.152344 65.480469 28.296875 65.433594 28.511719 65.425781 C 28.867188 65.71875 28.84375 66.78125 28.878906 67.089844 C 28.910156 67.367188 28.957031 67.636719 29.03125 67.898438 C 29.03125 67.925781 29.03125 67.957031 29.035156 67.988281 C 29.070312 68.09375 29.113281 68.199219 29.164062 68.300781 C 29.167969 68.304688 29.167969 68.304688 29.167969 68.308594 C 29.171875 68.308594 29.171875 68.3125 29.171875 68.316406 C 29.183594 68.335938 29.195312 68.347656 29.207031 68.359375 C 29.304688 68.492188 29.410156 68.613281 29.535156 68.730469 C 29.875 69.042969 30.429688 69.203125 30.945312 69.316406 C 31.550781 69.339844 32.152344 69.308594 32.75 69.265625 C 33.402344 69.222656 33.984375 68.996094 34.609375 68.839844 C 35.105469 68.71875 35.78125 68.730469 36.238281 68.988281 C 36.507812 69.140625 37.144531 69.691406 37.101562 69.949219 C 36.945312 70.445312 36.589844 70.945312 35.253906 71.734375 C 34.640625 72.097656 32.867188 72.78125 32.089844 72.902344 C 31.128906 73.058594 27.070312 74.085938 26.632812 73.292969 C 26.394531 72.820312 26.140625 72.019531 26.027344 71.5 C 25.976562 71.261719 25.925781 71.023438 25.902344 70.78125 C 25.8125 70.449219 25.792969 70.054688 25.730469 69.765625 C 25.605469 69.171875 25.476562 68.597656 25.304688 68.011719 C 25.203125 67.671875 25.058594 67.34375 24.882812 67.039062 C 24.808594 66.910156 24.644531 66.671875 24.691406 66.511719 Z M 24.691406 66.511719 " fill-opacity="1" fill-rule="nonzero"/></g><g clip-path="url(#76914b9a0c)"><path fill="#bcb9a8" d="M 27.011719 73.199219 C 27.5625 73.222656 28.125 73.257812 28.675781 73.203125 C 29.328125 73.140625 29.976562 73 30.617188 72.871094 C 31.210938 72.753906 31.804688 72.625 32.375 72.433594 C 33.46875 72.066406 34.609375 71.605469 35.574219 70.972656 C 36.054688 70.65625 36.746094 70.175781 36.914062 69.566406 C 37.035156 69.710938 37.117188 69.851562 37.101562 69.949219 C 36.945312 70.445312 36.589844 70.945312 35.253906 71.734375 C 34.640625 72.097656 32.863281 72.78125 32.089844 72.902344 C 31.128906 73.058594 27.070312 74.085938 26.632812 73.292969 C 26.617188 73.253906 26.597656 73.214844 26.578125 73.171875 C 26.722656 73.1875 26.867188 73.195312 27.011719 73.199219 Z M 27.011719 73.199219 " fill-opacity="1" fill-rule="nonzero"/></g><g clip-path="url(#0033c885d2)"><path fill="#5b3512" d="M -0.445312 68.734375 C -0.375 68.539062 -0.246094 68.355469 -0.132812 68.179688 C -0.0859375 68.109375 -0.046875 68.039062 -0.0078125 67.964844 C 0.015625 67.894531 0.0429688 67.828125 0.0820312 67.765625 C 0.1875 67.601562 0.285156 67.429688 0.390625 67.265625 C 0.578125 66.851562 0.824219 66.476562 1.078125 66.097656 C 1.417969 65.597656 1.667969 65.023438 1.886719 64.460938 C 1.976562 64.230469 2.058594 63.992188 2.128906 63.757812 C 2.132812 63.753906 2.140625 63.75 2.140625 63.746094 C 2.375 63.03125 2.777344 63.328125 3.179688 63.601562 C 3.546875 63.855469 3.996094 64.269531 4.402344 64.449219 C 4.679688 64.570312 5.195312 65.078125 5.394531 64.84375 C 5.480469 64.742188 5.804688 64.691406 5.976562 64.878906 C 6.160156 65.078125 6.195312 65.238281 6.160156 65.386719 C 6.011719 65.519531 5.824219 65.621094 5.695312 65.753906 C 5.433594 66.023438 5.261719 66.355469 5.089844 66.683594 C 4.828125 67.179688 4.460938 67.652344 4.507812 68.222656 C 4.507812 68.300781 4.511719 68.378906 4.523438 68.457031 C 4.542969 68.492188 4.566406 68.523438 4.585938 68.5625 C 4.691406 68.855469 4.863281 69.058594 5.101562 69.285156 C 5.589844 69.746094 6.125 70.148438 6.667969 70.542969 C 7.199219 70.925781 7.796875 71.128906 8.382812 71.414062 C 8.84375 71.640625 9.359375 72.085938 9.546875 72.585938 C 9.65625 72.875 9.558594 73.121094 9.359375 73.292969 C 8.917969 73.574219 8.328125 73.644531 7.796875 73.636719 C 7.082031 73.625 6.371094 73.507812 5.664062 73.386719 C 5.027344 73.28125 4.40625 73.171875 3.804688 72.925781 C 2.898438 72.558594 2.199219 71.941406 1.453125 71.328125 C 0.839844 70.824219 0.253906 70.304688 -0.320312 69.769531 C -0.335938 69.746094 -0.355469 69.726562 -0.375 69.707031 C -0.628906 69.386719 -0.566406 69.085938 -0.445312 68.734375 Z M -0.445312 68.734375 " fill-opacity="1" fill-rule="nonzero"/></g><g clip-path="url(#8954067b7c)"><path fill="#bcb9a8" d="M -0.4375 68.714844 C -0.328125 68.964844 -0.164062 69.195312 0.015625 69.402344 C 0.398438 69.847656 0.804688 70.269531 1.257812 70.644531 C 2.210938 71.433594 3.210938 72.34375 4.398438 72.75 C 5.652344 73.175781 7.035156 73.222656 8.335938 73.101562 C 8.683594 73.070312 9.210938 73.054688 9.460938 72.769531 C 9.503906 72.722656 9.535156 72.671875 9.558594 72.621094 C 9.648438 72.894531 9.550781 73.125 9.359375 73.292969 C 8.917969 73.574219 8.328125 73.644531 7.796875 73.636719 C 7.082031 73.625 6.371094 73.507812 5.664062 73.386719 C 5.027344 73.28125 4.40625 73.171875 3.804688 72.925781 C 2.898438 72.558594 2.199219 71.941406 1.453125 71.328125 C 0.839844 70.824219 0.253906 70.304688 -0.320312 69.769531 C -0.335938 69.746094 -0.355469 69.726562 -0.375 69.707031 C -0.625 69.386719 -0.566406 69.085938 -0.445312 68.734375 C -0.441406 68.730469 -0.4375 68.722656 -0.4375 68.714844 Z M -0.4375 68.714844 " fill-opacity="1" fill-rule="nonzero"/></g><g clip-path="url(#e192da3f39)"><path fill="#fff8de" d="M 5.832031 73.085938 C 6.445312 73.132812 7.054688 73.160156 7.671875 73.132812 C 8 73.117188 8.339844 73.117188 8.660156 73.054688 C 8.988281 72.992188 9.316406 72.976562 9.519531 72.667969 C 9.523438 72.667969 9.523438 72.667969 9.523438 72.671875 C 9.234375 73.160156 8.484375 73.128906 7.988281 73.160156 C 7.273438 73.207031 6.546875 73.164062 5.835938 73.09375 C 5.832031 73.09375 5.828125 73.085938 5.832031 73.085938 Z M 5.832031 73.085938 " fill-opacity="1" fill-rule="nonzero"/></g><path fill="#a57752" d="M 16.523438 17.347656 C 16.523438 17.347656 17.449219 17.742188 18.421875 18.789062 C 19.664062 20.128906 21.917969 22.921875 21.769531 25.035156 C 21.675781 26.375 20.5 30.785156 20.5 30.785156 C 20.5 30.785156 20.929688 34.914062 20.839844 36.429688 C 20.757812 37.890625 18.226562 38.066406 14.597656 37.777344 C 14.597656 37.777344 11.335938 37.167969 11.421875 36.148438 C 11.585938 34.175781 12.527344 33.21875 12.480469 31.835938 C 12.402344 29.667969 11.28125 27.457031 11.328125 25.933594 C 11.414062 23.023438 11.566406 19.386719 13.382812 17.324219 C 14.074219 16.539062 15.101562 16.714844 16.523438 17.347656 Z M 16.523438 17.347656 " fill-opacity="1" fill-rule="nonzero"/><path fill="#fdcf1a" d="M 11.363281 24.929688 C 11.617188 24.710938 11.792969 24.363281 11.910156 24.0625 C 12.246094 23.214844 12.398438 22.296875 12.539062 21.398438 C 12.671875 20.535156 12.820312 19.726562 13.136719 18.90625 C 13.488281 17.992188 14.007812 17.324219 14.832031 16.980469 C 15.382812 17.074219 15.914062 17.265625 16.359375 17.628906 C 16.878906 18.050781 17.28125 18.578125 17.691406 19.105469 C 18.128906 19.667969 18.453125 20.320312 18.855469 20.90625 C 19.316406 21.582031 20.390625 23.085938 21.21875 22.726562 C 21.589844 23.519531 21.820312 24.316406 21.769531 25.035156 C 21.675781 26.375 20.5 30.785156 20.5 30.785156 C 20.5 30.785156 20.929688 34.914062 20.839844 36.429688 C 20.757812 37.890625 18.226562 38.066406 14.597656 37.777344 C 14.597656 37.777344 11.335938 37.167969 11.421875 36.148438 C 11.585938 34.175781 12.527344 33.21875 12.480469 31.835938 C 12.402344 29.667969 11.28125 27.457031 11.328125 25.933594 C 11.335938 25.609375 11.347656 25.273438 11.363281 24.929688 Z M 11.363281 24.929688 " fill-opacity="1" fill-rule="nonzero"/><path fill="#916a48" d="M 15.5 18.085938 C 15.5 18.085938 16.566406 18.074219 17.894531 20.382812 C 19.222656 22.6875 19.429688 24.980469 16.632812 25.523438 C 14.429688 25.953125 13.214844 23.585938 13.628906 20.855469 C 14.046875 18.128906 14.8125 18.097656 15.5 18.085938 Z M 15.5 18.085938 " fill-opacity="1" fill-rule="nonzero"/><path fill="#75431c" d="M 27.769531 65.546875 C 28.066406 65.847656 28.027344 66.238281 28.070312 66.640625 C 28.140625 67.347656 28.332031 68.011719 28.652344 68.644531 C 29.304688 69.914062 31.144531 70.054688 32.367188 69.9375 C 32.371094 69.9375 32.371094 69.941406 32.371094 69.941406 C 31.15625 70.144531 29.828125 70.097656 28.890625 69.183594 C 28.484375 68.789062 28.292969 68.214844 28.128906 67.6875 C 27.910156 67 28.027344 66.238281 27.707031 65.582031 C 27.683594 65.535156 27.738281 65.515625 27.769531 65.546875 Z M 27.769531 65.546875 " fill-opacity="1" fill-rule="nonzero"/><path fill="#75431c" d="M 25.675781 66.125 C 25.882812 66.003906 26.132812 65.9375 26.367188 65.878906 C 26.648438 65.8125 27.101562 65.804688 27.335938 65.640625 C 27.339844 65.640625 27.339844 65.640625 27.339844 65.644531 C 27.214844 65.765625 27.058594 65.769531 26.894531 65.816406 C 26.632812 65.894531 26.371094 65.984375 26.117188 66.074219 C 25.355469 66.355469 25.1875 66.988281 25.585938 67.664062 C 26.117188 68.5625 26.335938 69.691406 26.359375 70.726562 C 26.359375 70.753906 26.324219 70.742188 26.320312 70.722656 C 26.257812 69.9375 26.140625 69.132812 25.835938 68.402344 C 25.660156 67.980469 25.253906 67.535156 25.203125 67.078125 C 25.15625 66.664062 25.316406 66.339844 25.675781 66.125 Z M 25.675781 66.125 " fill-opacity="1" fill-rule="nonzero"/><path fill="#75431c" d="M 26.191406 71.53125 C 26.921875 71.433594 27.859375 72.226562 27.953125 72.839844 C 27.953125 72.835938 27.957031 72.835938 27.957031 72.839844 C 27.96875 72.875 27.980469 72.914062 27.992188 72.953125 C 28 72.976562 27.96875 72.980469 27.964844 72.957031 C 27.753906 72.25 26.960938 71.597656 26.203125 71.582031 C 26.179688 71.582031 26.160156 71.535156 26.191406 71.53125 Z M 26.191406 71.53125 " fill-opacity="1" fill-rule="nonzero"/><path fill="#75431c" d="M 3.820312 67.082031 C 4.0625 66.730469 4.347656 66.425781 4.574219 66.058594 C 4.792969 65.703125 4.976562 65.355469 5.148438 64.976562 C 5.148438 64.972656 5.152344 64.976562 5.152344 64.976562 C 4.964844 65.582031 4.726562 66.125 4.386719 66.667969 C 4.183594 66.992188 3.90625 67.273438 3.695312 67.597656 C 3.429688 68.007812 3.328125 68.417969 3.320312 68.902344 C 3.320312 68.929688 3.28125 68.921875 3.277344 68.898438 C 3.148438 68.1875 3.417969 67.660156 3.820312 67.082031 Z M 3.820312 67.082031 " fill-opacity="1" fill-rule="nonzero"/><path fill="#75431c" d="M 3.824219 69.058594 C 4.019531 69.359375 4.433594 69.585938 4.722656 69.785156 C 5.078125 70.027344 5.425781 70.308594 5.800781 70.527344 C 5.828125 70.542969 5.835938 70.605469 5.789062 70.59375 C 5.410156 70.476562 5.109375 70.179688 4.792969 69.945312 C 4.46875 69.707031 4.003906 69.433594 3.816406 69.0625 C 3.8125 69.058594 3.820312 69.054688 3.824219 69.058594 Z M 3.824219 69.058594 " fill-opacity="1" fill-rule="nonzero"/><path fill="#75431c" d="M 7.949219 71.3125 C 7.957031 71.316406 7.957031 71.324219 7.949219 71.324219 C 6.917969 71.035156 6.21875 71.621094 5.667969 72.40625 C 5.652344 72.429688 5.613281 72.402344 5.625 72.375 C 6.011719 71.429688 6.960938 70.929688 7.949219 71.3125 Z M 7.949219 71.3125 " fill-opacity="1" fill-rule="nonzero"/><path fill="#75431c" d="M 1.40625 66.402344 C 1.75 65.800781 2.015625 65.183594 2.1875 64.511719 C 2.28125 64.148438 2.433594 63.792969 2.855469 63.785156 C 3.34375 63.773438 3.664062 64.441406 4.058594 64.640625 C 4.0625 64.644531 4.0625 64.652344 4.058594 64.648438 C 3.621094 64.449219 3.046875 63.546875 2.558594 64.15625 C 2.4375 64.308594 2.40625 64.554688 2.347656 64.738281 C 2.285156 64.933594 2.179688 65.121094 2.089844 65.304688 C 1.648438 66.195312 1.03125 66.992188 0.601562 67.878906 C 0.597656 67.890625 0.582031 67.878906 0.582031 67.871094 C 0.800781 67.355469 1.132812 66.886719 1.40625 66.402344 Z M 1.40625 66.402344 " fill-opacity="1" fill-rule="nonzero"/><path fill="#75431c" d="M 0.308594 67.84375 C 0.308594 67.84375 0.308594 67.839844 0.3125 67.839844 C 0.316406 67.84375 0.320312 67.84375 0.324219 67.84375 C 0.324219 67.847656 0.328125 67.851562 0.328125 67.855469 C 0.328125 67.855469 0.328125 67.855469 0.332031 67.855469 C 0.386719 67.890625 0.492188 67.96875 0.542969 68 C 0.601562 68.058594 0.652344 68.117188 0.707031 68.183594 C 0.839844 68.355469 0.914062 68.59375 0.96875 68.804688 C 1.082031 69.238281 1.007812 69.71875 0.621094 69.976562 C 0.578125 70.003906 0.535156 69.941406 0.566406 69.90625 C 1.03125 69.402344 0.988281 68.210938 0.304688 67.859375 C 0.300781 67.855469 0.296875 67.851562 0.300781 67.847656 C 0.292969 67.835938 0.296875 67.835938 0.308594 67.84375 Z M 0.308594 67.84375 " fill-opacity="1" fill-rule="nonzero"/><path fill="#75431c" d="M 0.542969 68 C 0.515625 67.976562 0.492188 67.949219 0.460938 67.929688 C 0.585938 68.027344 0.585938 68.03125 0.542969 68 Z M 0.542969 68 " fill-opacity="1" fill-rule="nonzero"/><path fill="#301e0f" d="M 3.253906 68.648438 C 3.25 68.625 3.25 68.601562 3.261719 68.582031 C 3.386719 68.382812 3.726562 68.226562 3.949219 68.191406 C 4.09375 68.167969 4.222656 68.179688 4.351562 68.199219 C 4.203125 68.058594 4.066406 67.898438 3.964844 67.730469 C 3.894531 67.613281 3.726562 67.351562 3.839844 67.214844 C 3.84375 67.210938 3.851562 67.207031 3.859375 67.207031 C 3.867188 67.210938 3.875 67.210938 3.878906 67.210938 C 3.886719 67.214844 3.890625 67.222656 3.886719 67.226562 C 3.886719 67.234375 3.894531 67.246094 3.90625 67.265625 C 4.019531 67.210938 4.15625 67.226562 4.28125 67.222656 C 4.378906 67.21875 4.480469 67.214844 4.578125 67.222656 C 4.640625 67.226562 4.703125 67.234375 4.765625 67.238281 C 4.738281 67.195312 4.722656 67.15625 4.710938 67.089844 C 4.683594 66.9375 4.632812 66.792969 4.578125 66.648438 C 4.546875 66.558594 4.429688 66.273438 4.492188 66.167969 C 4.515625 66.082031 4.679688 66.09375 4.761719 66.09375 C 4.886719 66.097656 5.019531 66.074219 5.144531 66.0625 C 5.167969 66.058594 5.246094 66.066406 5.328125 66.070312 C 5.3125 65.925781 5.226562 65.773438 5.164062 65.648438 C 5.128906 65.582031 5.09375 65.515625 5.050781 65.453125 C 5.015625 65.394531 4.957031 65.265625 4.886719 65.242188 C 4.882812 65.242188 4.878906 65.234375 4.886719 65.234375 C 5.003906 65.199219 5.164062 65.40625 5.234375 65.476562 C 5.367188 65.609375 5.539062 65.847656 5.574219 66.058594 C 5.582031 66.0625 5.585938 66.070312 5.589844 66.074219 C 5.597656 66.082031 5.601562 66.09375 5.597656 66.101562 C 5.59375 66.109375 5.585938 66.121094 5.582031 66.128906 C 5.582031 66.136719 5.582031 66.144531 5.582031 66.148438 C 5.578125 66.242188 5.515625 66.261719 5.453125 66.246094 C 5.335938 66.300781 5.183594 66.316406 5.078125 66.339844 C 4.976562 66.359375 4.828125 66.398438 4.699219 66.378906 C 4.769531 66.492188 4.828125 66.617188 4.886719 66.734375 C 4.960938 66.886719 5.097656 67.183594 4.921875 67.304688 C 4.902344 67.320312 4.878906 67.320312 4.851562 67.3125 C 4.738281 67.421875 4.585938 67.453125 4.414062 67.472656 C 4.304688 67.488281 4.1875 67.511719 4.078125 67.5 C 4.140625 67.578125 4.199219 67.648438 4.210938 67.664062 C 4.34375 67.835938 4.523438 67.96875 4.652344 68.144531 C 4.691406 68.199219 4.6875 68.261719 4.660156 68.308594 C 4.664062 68.320312 4.664062 68.335938 4.652344 68.351562 C 4.5625 68.484375 4.3125 68.429688 4.179688 68.441406 C 4.0625 68.449219 3.957031 68.503906 3.855469 68.5625 C 4.023438 68.578125 4.191406 68.617188 4.355469 68.660156 C 4.46875 68.695312 4.648438 68.75 4.769531 68.839844 C 4.835938 68.835938 4.894531 68.867188 4.917969 68.964844 C 4.933594 69.03125 4.90625 69.082031 4.851562 69.113281 C 4.667969 69.210938 4.507812 69.359375 4.328125 69.460938 C 4.472656 69.441406 4.613281 69.433594 4.757812 69.4375 C 5.007812 69.441406 5.273438 69.433594 5.511719 69.515625 C 5.566406 69.53125 5.589844 69.613281 5.546875 69.652344 C 5.542969 69.65625 5.539062 69.65625 5.535156 69.660156 C 5.539062 69.777344 5.523438 69.890625 5.488281 70 C 5.738281 69.9375 6.035156 69.957031 6.230469 69.976562 C 6.308594 69.984375 6.382812 70.089844 6.351562 70.164062 C 6.308594 70.273438 6.214844 70.367188 6.152344 70.46875 C 6.074219 70.597656 6.007812 70.714844 5.863281 70.773438 C 5.8125 70.792969 5.773438 70.730469 5.792969 70.691406 C 5.859375 70.554688 5.914062 70.417969 5.976562 70.28125 C 5.980469 70.273438 5.984375 70.265625 5.988281 70.257812 C 5.890625 70.261719 5.796875 70.265625 5.703125 70.269531 C 5.574219 70.277344 5.445312 70.316406 5.320312 70.34375 C 5.238281 70.363281 5.164062 70.351562 5.085938 70.382812 C 5.074219 70.386719 5.0625 70.375 5.066406 70.363281 C 5.078125 70.304688 5.101562 70.253906 5.132812 70.210938 C 5.132812 70.210938 5.128906 70.207031 5.128906 70.203125 C 5.113281 70.082031 5.191406 69.984375 5.261719 69.894531 C 5.289062 69.859375 5.316406 69.804688 5.347656 69.75 C 5.136719 69.796875 4.882812 69.738281 4.683594 69.722656 C 4.472656 69.703125 4.148438 69.710938 4.003906 69.519531 C 4 69.511719 4.003906 69.5 4.011719 69.503906 C 4.035156 69.515625 4.0625 69.515625 4.09375 69.511719 C 4.164062 69.300781 4.332031 69.128906 4.492188 68.984375 C 4.5 68.976562 4.511719 68.972656 4.519531 68.964844 C 4.410156 68.929688 4.308594 68.886719 4.246094 68.875 C 3.960938 68.820312 3.683594 68.851562 3.398438 68.839844 C 3.316406 68.835938 3.226562 68.71875 3.253906 68.648438 Z M 3.253906 68.648438 " fill-opacity="1" fill-rule="nonzero"/><path fill="#301e0f" d="M 27.878906 65.859375 C 28.085938 65.742188 28.324219 65.910156 28.5 66.011719 C 28.617188 66.082031 28.710938 66.160156 28.789062 66.253906 C 28.816406 66.203125 28.832031 66.148438 28.820312 66.09375 C 28.820312 66.089844 28.824219 66.085938 28.828125 66.089844 C 28.886719 66.171875 28.894531 66.273438 28.875 66.375 C 28.902344 66.417969 28.929688 66.46875 28.953125 66.519531 C 28.953125 66.523438 28.953125 66.523438 28.949219 66.523438 C 28.921875 66.496094 28.886719 66.46875 28.855469 66.445312 C 28.824219 66.53125 28.777344 66.613281 28.71875 66.671875 C 28.617188 66.78125 28.511719 66.863281 28.371094 66.921875 C 28.359375 66.929688 28.34375 66.9375 28.324219 66.941406 C 28.429688 67 28.507812 67.070312 28.613281 67.132812 C 28.84375 67.265625 29.078125 67.429688 29.109375 67.707031 C 29.113281 67.734375 29.085938 67.757812 29.0625 67.734375 C 29.015625 67.835938 28.882812 67.933594 28.824219 67.992188 C 28.734375 68.078125 28.644531 68.1875 28.535156 68.253906 C 28.902344 68.265625 29.535156 68.402344 29.578125 68.605469 C 29.582031 68.605469 29.582031 68.609375 29.585938 68.609375 C 29.597656 68.613281 29.605469 68.625 29.601562 68.632812 C 29.550781 68.820312 29.449219 68.976562 29.40625 69.164062 C 29.382812 69.261719 29.335938 69.421875 29.265625 69.535156 C 29.375 69.460938 29.5625 69.332031 29.589844 69.316406 C 29.742188 69.234375 29.925781 69.136719 30.097656 69.078125 C 30.097656 69.078125 30.097656 69.074219 30.097656 69.070312 C 30.101562 68.894531 30.324219 68.964844 30.359375 69.089844 C 30.402344 69.234375 30.382812 69.386719 30.386719 69.535156 C 30.386719 69.632812 30.382812 69.726562 30.378906 69.824219 C 30.375 69.851562 30.371094 69.882812 30.367188 69.914062 C 30.429688 69.828125 30.550781 69.75 30.609375 69.707031 C 30.734375 69.605469 30.890625 69.53125 31.027344 69.445312 C 31.101562 69.402344 31.179688 69.347656 31.261719 69.316406 C 31.242188 69.214844 31.34375 69.15625 31.4375 69.21875 C 31.582031 69.316406 31.539062 69.59375 31.542969 69.746094 C 31.542969 69.792969 31.550781 69.859375 31.542969 69.921875 C 31.574219 69.839844 31.621094 69.761719 31.671875 69.691406 C 31.773438 69.542969 31.859375 69.363281 31.976562 69.226562 C 32.015625 69.183594 32.0625 69.171875 32.117188 69.195312 C 32.148438 69.210938 32.167969 69.230469 32.183594 69.25 C 32.234375 69.257812 32.277344 69.304688 32.292969 69.355469 C 32.320312 69.449219 32.285156 69.574219 32.28125 69.667969 C 32.277344 69.808594 32.269531 69.949219 32.234375 70.082031 C 32.230469 70.097656 32.210938 70.09375 32.199219 70.082031 C 32.191406 70.074219 32.1875 70.066406 32.191406 70.054688 C 32.191406 70.042969 32.207031 70.046875 32.210938 70.050781 C 32.132812 69.941406 32.109375 69.769531 32.097656 69.632812 C 32.097656 69.613281 32.09375 69.59375 32.09375 69.574219 C 32.078125 69.59375 32.066406 69.613281 32.054688 69.628906 C 31.945312 69.808594 31.753906 70.074219 31.53125 70.109375 C 31.519531 70.113281 31.511719 70.101562 31.511719 70.09375 C 31.511719 70.078125 31.515625 70.066406 31.515625 70.050781 C 31.503906 70.078125 31.484375 70.101562 31.457031 70.117188 C 31.453125 70.117188 31.445312 70.109375 31.445312 70.101562 C 31.476562 70 31.378906 69.828125 31.351562 69.734375 C 31.34375 69.695312 31.335938 69.65625 31.332031 69.613281 C 31.207031 69.730469 31.003906 69.808594 30.886719 69.871094 C 30.816406 69.910156 30.402344 70.207031 30.335938 70.082031 C 30.328125 70.066406 30.324219 70.046875 30.320312 70.03125 C 30.257812 69.953125 30.242188 69.828125 30.214844 69.742188 C 30.171875 69.613281 30.136719 69.464844 30.117188 69.320312 C 30.015625 69.375 29.898438 69.410156 29.820312 69.4375 C 29.621094 69.503906 29.417969 69.601562 29.203125 69.617188 C 29.191406 69.628906 29.179688 69.640625 29.164062 69.648438 C 29.113281 69.675781 29.015625 69.648438 28.996094 69.566406 C 28.945312 69.386719 29.121094 69.164062 29.179688 68.992188 C 29.210938 68.902344 29.25 68.816406 29.324219 68.753906 C 29.328125 68.75 29.34375 68.734375 29.367188 68.71875 C 29.1875 68.667969 29.007812 68.628906 28.832031 68.570312 C 28.628906 68.507812 28.488281 68.433594 28.332031 68.308594 C 28.316406 68.308594 28.300781 68.308594 28.285156 68.304688 C 28.25 68.300781 28.21875 68.257812 28.230469 68.21875 C 28.253906 68.144531 28.28125 68.074219 28.34375 68.015625 C 28.417969 67.941406 28.507812 67.894531 28.578125 67.824219 C 28.613281 67.785156 28.792969 67.667969 28.917969 67.613281 C 28.75 67.488281 28.570312 67.378906 28.414062 67.238281 C 28.320312 67.15625 28.21875 67.097656 28.121094 67.023438 C 28.105469 67.011719 28.023438 66.984375 28.023438 66.945312 C 28.023438 66.933594 28.039062 66.9375 28.042969 66.945312 C 28.03125 66.925781 28.058594 66.917969 28.09375 66.910156 C 28.136719 66.871094 28.191406 66.84375 28.238281 66.808594 C 28.320312 66.75 28.375 66.664062 28.449219 66.601562 C 28.515625 66.539062 28.632812 66.449219 28.71875 66.351562 C 28.613281 66.285156 28.496094 66.226562 28.386719 66.175781 C 28.277344 66.128906 28.179688 66.078125 28.0625 66.066406 C 27.976562 66.054688 27.914062 66.023438 27.863281 65.953125 C 27.84375 65.921875 27.839844 65.882812 27.878906 65.859375 Z M 27.878906 65.859375 " fill-opacity="1" fill-rule="nonzero"/><path fill="#a57752" d="M 21.375 30.234375 L 17.382812 20.328125 C 17.027344 19.808594 16.273438 18.324219 15.101562 18.507812 C 15.101562 18.507812 13.136719 18.90625 14.109375 22.265625 L 18.089844 30.429688 C 19.070312 31.347656 21.53125 31.320312 21.375 30.234375 Z M 21.375 30.234375 " fill-opacity="1" fill-rule="nonzero"/><path fill="#a57752" d="M 17.816406 29.921875 C 18.121094 31.078125 20.214844 32.648438 20.574219 32.992188 C 21.535156 33.898438 22.878906 35.007812 23.9375 35.796875 C 25.046875 36.632812 25.789062 37.128906 26.019531 37.128906 L 26.621094 36.445312 C 27.019531 36.015625 27.027344 36.359375 22.542969 30.464844 L 20.523438 28.265625 C 19.464844 27.765625 17.175781 28.695312 17.816406 29.921875 Z M 17.816406 29.921875 " fill-opacity="1" fill-rule="nonzero"/><path fill="#a57752" d="M 27.039062 39.84375 C 26.796875 39.578125 26.542969 39.328125 26.265625 39.101562 C 26.164062 39.019531 26.066406 38.9375 25.972656 38.847656 C 25.710938 38.433594 25.5 37.988281 25.359375 37.515625 C 25.214844 37.046875 25.042969 36.398438 25.324219 35.949219 C 25.539062 35.601562 25.875 35.480469 26.222656 35.492188 C 27.367188 36.109375 28.429688 36.847656 29.417969 37.683594 C 29.484375 37.773438 29.550781 37.863281 29.609375 37.957031 C 29.648438 38.039062 29.6875 38.125 29.722656 38.210938 C 29.871094 38.53125 30.050781 38.839844 30.171875 39.171875 C 30.253906 39.390625 30.273438 39.601562 30.257812 39.8125 C 30.214844 39.980469 30.128906 40.136719 30.09375 40.308594 C 30.0625 40.464844 29.988281 40.609375 29.929688 40.757812 C 29.863281 40.9375 29.757812 41.246094 29.574219 41.253906 C 29.558594 41.332031 29.574219 41.378906 29.574219 41.457031 C 29.605469 43.078125 28.875 42.800781 28.769531 41.769531 C 28.796875 41.992188 28.617188 42.511719 28.386719 42.441406 C 28.199219 42.390625 28.039062 42.152344 28.039062 41.476562 C 28.039062 41.367188 28.042969 41.183594 28.027344 41.074219 C 28.03125 41.25 28.042969 41.476562 28.027344 41.652344 C 28.019531 41.738281 27.964844 42.09375 27.835938 42.128906 C 27.515625 42.214844 27.453125 41.585938 27.449219 41.433594 C 27.433594 41 27.457031 40.496094 27.230469 40.117188 C 27.171875 40.023438 27.109375 39.933594 27.039062 39.84375 Z M 29.542969 39.667969 C 29.488281 39.5 29.296875 39.128906 29.226562 39.007812 C 29.191406 38.949219 29.125 38.875 29.066406 38.792969 C 29.210938 39.054688 29.386719 39.410156 29.492188 39.695312 C 29.496094 39.695312 29.511719 40.148438 29.515625 40.136719 C 29.527344 40.109375 29.546875 39.695312 29.542969 39.667969 Z M 29.542969 39.667969 " fill-opacity="1" fill-rule="nonzero"/><path fill="#916a48" d="M 28.042969 40.464844 C 28.050781 40.167969 27.90625 39.824219 27.78125 39.558594 C 27.777344 39.558594 27.78125 39.558594 27.78125 39.558594 C 27.902344 39.789062 27.988281 40.042969 28.054688 40.292969 C 28.121094 40.550781 28.058594 40.816406 28.039062 41.078125 C 28.039062 41.082031 28.03125 41.082031 28.027344 41.074219 C 28.015625 40.875 28.039062 40.667969 28.042969 40.464844 Z M 28.042969 40.464844 " fill-opacity="1" fill-rule="nonzero"/><path fill="#a1723b" d="M 29.257812 38.375 C 29.316406 38.359375 29.402344 38.308594 29.445312 38.261719 C 29.488281 38.21875 29.503906 38.140625 29.484375 38.082031 C 29.484375 38.078125 29.488281 38.078125 29.492188 38.082031 C 29.519531 38.144531 29.507812 38.21875 29.472656 38.277344 C 29.453125 38.316406 29.402344 38.355469 29.367188 38.378906 C 29.332031 38.398438 29.304688 38.40625 29.261719 38.402344 C 29.25 38.402344 29.242188 38.378906 29.257812 38.375 Z M 29.257812 38.375 " fill-opacity="1" fill-rule="nonzero"/><path fill="#916a48" d="M 29.496094 39.832031 C 29.5 39.828125 29.503906 39.832031 29.503906 39.835938 C 29.507812 40.320312 29.625 40.820312 29.546875 41.304688 C 29.542969 41.316406 29.527344 41.3125 29.527344 41.300781 C 29.550781 40.8125 29.488281 40.324219 29.496094 39.832031 Z M 29.496094 39.832031 " fill-opacity="1" fill-rule="nonzero"/><path fill="#916a48" d="M 28.84375 40.710938 C 28.859375 40.210938 28.730469 39.808594 28.523438 39.359375 C 28.523438 39.359375 28.527344 39.359375 28.527344 39.359375 C 28.699219 39.679688 28.875 40.039062 28.882812 40.410156 C 28.890625 40.90625 28.851562 41.378906 28.777344 41.871094 C 28.777344 41.878906 28.765625 41.878906 28.765625 41.871094 C 28.789062 41.480469 28.828125 41.101562 28.84375 40.710938 Z M 28.84375 40.710938 " fill-opacity="1" fill-rule="nonzero"/><path fill="#a1723b" d="M 28.449219 38.917969 C 28.507812 38.898438 28.566406 38.898438 28.625 38.871094 C 28.679688 38.839844 28.726562 38.769531 28.757812 38.71875 C 28.738281 38.777344 28.703125 38.859375 28.648438 38.894531 C 28.589844 38.933594 28.523438 38.949219 28.453125 38.941406 C 28.441406 38.941406 28.4375 38.921875 28.449219 38.917969 Z M 28.449219 38.917969 " fill-opacity="1" fill-rule="nonzero"/><path fill="#a57752" d="M 15.820312 1.175781 C 15.820312 1.179688 17.601562 1.5 17.769531 1.546875 C 18.394531 1.730469 18.988281 2.003906 19.53125 2.367188 C 20.621094 3.09375 21.871094 4.195312 22.234375 5.472656 C 22.390625 6.03125 22.363281 6.554688 22.359375 7.136719 C 22.359375 7.714844 21.960938 8.304688 21.925781 8.878906 C 21.902344 9.273438 22.078125 9.640625 22.328125 9.972656 C 22.382812 10.09375 22.449219 10.214844 22.53125 10.339844 C 22.71875 10.636719 22.925781 10.972656 23.214844 11.183594 C 23.347656 11.28125 23.503906 11.359375 23.628906 11.464844 C 23.667969 11.570312 23.679688 11.683594 23.632812 11.796875 C 23.621094 11.832031 23.601562 11.859375 23.585938 11.890625 C 23.46875 12.003906 23.320312 12.09375 23.1875 12.15625 C 23.039062 12.226562 22.675781 12.34375 22.679688 12.546875 C 22.679688 12.546875 22.679688 12.679688 22.78125 12.882812 C 22.847656 13.015625 22.980469 13.300781 22.949219 13.464844 C 22.894531 13.761719 22.277344 13.875 22.015625 13.859375 C 21.996094 13.875 22.671875 13.902344 22.664062 14.179688 C 22.652344 14.515625 22.449219 14.421875 22.367188 14.761719 C 22.183594 15.148438 22.128906 15.605469 22.015625 16.027344 C 21.742188 16.457031 21.355469 16.800781 20.867188 16.878906 C 20.347656 16.960938 19.851562 16.890625 19.367188 16.742188 C 18.449219 16.332031 17.605469 15.679688 16.949219 14.964844 C 16.320312 14.285156 15.992188 13.453125 15.734375 12.59375 C 15.671875 12.300781 15.617188 12.003906 15.546875 11.707031 C 15.402344 11.09375 15.261719 10.476562 15.125 9.855469 C 15.898438 7.054688 15.980469 4.078125 15.820312 1.175781 Z M 15.820312 1.175781 " fill-opacity="1" fill-rule="nonzero"/><path fill="#916a48" d="M 22.015625 13.859375 C 22 13.867188 22.378906 13.890625 22.5625 14.015625 C 22.339844 13.910156 22.125 13.890625 21.878906 13.835938 C 21.839844 13.824219 21.804688 13.816406 21.769531 13.808594 C 22.191406 13.757812 22.59375 13.65625 22.953125 13.421875 C 22.953125 13.433594 22.953125 13.449219 22.949219 13.464844 C 22.894531 13.761719 22.277344 13.875 22.015625 13.859375 Z M 22.015625 13.859375 " fill-opacity="1" fill-rule="nonzero"/><path fill="#916a48" d="M 23.644531 11.523438 C 23.667969 11.613281 23.671875 11.703125 23.632812 11.796875 C 23.621094 11.832031 23.601562 11.859375 23.585938 11.886719 C 23.46875 12.003906 23.320312 12.09375 23.1875 12.15625 C 23.042969 12.222656 22.699219 12.335938 22.683594 12.53125 C 22.464844 12.390625 22.261719 12.230469 22.089844 12.035156 C 22.640625 12.003906 23.25 11.910156 23.644531 11.523438 Z M 23.644531 11.523438 " fill-opacity="1" fill-rule="nonzero"/><g clip-path="url(#5d99dcf34d)"><path fill="#3c3c3b" d="M 5.796875 6.960938 C 5.851562 6.875 6.007812 6.871094 6.121094 6.867188 C 6.078125 6.789062 6.050781 6.71875 6.046875 6.679688 C 6.027344 6.496094 6.144531 6.433594 6.285156 6.433594 C 6.242188 6.320312 6.230469 6.195312 6.3125 6.109375 C 6.367188 6.054688 6.4375 6.042969 6.507812 6.050781 C 6.449219 5.910156 6.414062 5.757812 6.410156 5.617188 C 6.40625 5.449219 6.507812 5.324219 6.65625 5.265625 C 6.742188 5.234375 6.832031 5.246094 6.917969 5.277344 C 6.765625 5.046875 6.761719 4.695312 6.921875 4.488281 C 7.007812 4.382812 7.140625 4.332031 7.28125 4.324219 C 7.234375 4.160156 7.285156 4.003906 7.378906 3.820312 C 7.414062 3.753906 7.460938 3.691406 7.511719 3.636719 C 7.496094 3.496094 7.488281 3.351562 7.5625 3.242188 C 7.648438 3.117188 7.871094 3.109375 8 3.152344 C 8.0625 3.175781 8.113281 3.230469 8.15625 3.289062 C 8.164062 3.257812 8.167969 3.222656 8.179688 3.191406 C 8.117188 3.011719 8.105469 2.824219 8.207031 2.691406 C 8.304688 2.554688 8.488281 2.558594 8.632812 2.621094 C 8.695312 2.4375 8.851562 2.292969 9.058594 2.257812 C 9.074219 2.136719 9.121094 2.023438 9.21875 1.945312 C 9.320312 1.871094 9.433594 1.894531 9.542969 1.964844 C 9.546875 1.960938 9.546875 1.953125 9.550781 1.949219 C 9.550781 1.925781 9.546875 1.902344 9.546875 1.878906 C 9.550781 1.734375 9.628906 1.582031 9.785156 1.5625 C 9.863281 1.554688 9.945312 1.585938 10.023438 1.636719 C 10.023438 1.445312 10.097656 1.25 10.289062 1.261719 C 10.289062 1.144531 10.320312 1.027344 10.394531 0.9375 C 10.496094 0.8125 10.644531 0.871094 10.738281 0.96875 C 10.796875 1.023438 10.839844 1.085938 10.875 1.152344 C 10.902344 1.128906 10.925781 1.117188 10.949219 1.117188 C 10.953125 1.109375 10.957031 1.101562 10.960938 1.097656 C 11.007812 0.835938 11.101562 0.511719 11.375 0.644531 C 11.421875 0.667969 11.484375 0.734375 11.546875 0.824219 C 11.601562 0.667969 11.691406 0.550781 11.855469 0.597656 C 11.984375 0.632812 12.066406 0.714844 12.113281 0.816406 C 12.105469 0.609375 12.15625 0.417969 12.367188 0.402344 C 12.433594 0.398438 12.5 0.429688 12.558594 0.480469 C 12.59375 0.335938 12.683594 0.226562 12.855469 0.214844 C 13.019531 0.203125 13.128906 0.320312 13.203125 0.46875 C 13.199219 0.316406 13.238281 0.140625 13.390625 0.109375 C 13.597656 0.0664062 13.726562 0.210938 13.808594 0.394531 C 13.882812 0.15625 14.042969 -0.101562 14.3125 -0.0390625 C 14.414062 -0.015625 14.585938 0.222656 14.699219 0.472656 C 14.710938 0.4375 14.714844 0.398438 14.726562 0.363281 C 14.808594 0.128906 15.027344 0.00390625 15.246094 0.148438 C 15.316406 0.195312 15.382812 0.28125 15.433594 0.378906 C 15.46875 0.289062 15.53125 0.21875 15.628906 0.203125 C 15.855469 0.164062 15.949219 0.398438 15.976562 0.601562 C 16.027344 0.589844 16.074219 0.585938 16.125 0.582031 C 16.257812 0.320312 16.457031 0.0585938 16.710938 0.246094 C 16.777344 0.292969 16.828125 0.363281 16.867188 0.445312 C 16.945312 0.304688 17.0625 0.21875 17.242188 0.242188 C 17.382812 0.261719 17.5 0.378906 17.578125 0.527344 C 17.679688 0.367188 17.828125 0.253906 18.035156 0.273438 C 18.222656 0.296875 18.320312 0.550781 18.375 0.695312 C 18.382812 0.722656 18.390625 0.75 18.398438 0.777344 C 18.429688 0.71875 18.46875 0.667969 18.511719 0.621094 C 18.628906 0.492188 18.765625 0.367188 18.921875 0.519531 C 19.035156 0.625 19.09375 0.769531 19.121094 0.921875 C 19.199219 0.757812 19.316406 0.628906 19.550781 0.640625 C 19.710938 0.648438 19.789062 0.800781 19.835938 0.933594 C 19.859375 1.011719 19.859375 1.089844 19.847656 1.171875 C 19.902344 1.0625 20.023438 0.945312 20.15625 0.972656 C 20.335938 1.007812 20.433594 1.140625 20.46875 1.300781 C 20.515625 1.253906 20.585938 1.234375 20.683594 1.257812 C 20.839844 1.289062 20.917969 1.503906 20.957031 1.695312 C 20.988281 1.671875 21.019531 1.648438 21.054688 1.628906 C 21.183594 1.558594 21.351562 1.558594 21.425781 1.710938 C 21.4375 1.726562 21.441406 1.746094 21.449219 1.765625 C 21.460938 1.757812 21.476562 1.753906 21.488281 1.75 C 21.699219 1.691406 21.84375 1.9375 21.882812 2.105469 C 21.886719 2.117188 21.890625 2.136719 21.890625 2.152344 C 22.023438 1.980469 22.269531 1.894531 22.367188 2.195312 C 22.390625 2.261719 22.402344 2.332031 22.40625 2.402344 C 22.449219 2.390625 22.496094 2.378906 22.542969 2.378906 C 22.753906 2.367188 22.882812 2.511719 22.890625 2.710938 C 22.894531 2.746094 22.886719 2.777344 22.878906 2.8125 C 22.882812 2.816406 22.890625 2.816406 22.894531 2.820312 C 23.023438 2.921875 23.039062 3.097656 23.023438 3.253906 C 23.042969 3.246094 23.058594 3.242188 23.074219 3.238281 C 23.238281 3.195312 23.382812 3.210938 23.492188 3.351562 C 23.574219 3.460938 23.589844 3.59375 23.5625 3.722656 C 23.648438 3.773438 23.71875 3.851562 23.742188 3.945312 C 23.777344 4.078125 23.703125 4.222656 23.625 4.339844 C 23.820312 4.453125 23.96875 4.640625 23.976562 4.851562 C 23.984375 5.085938 23.648438 5.074219 23.4375 5.023438 C 23.4375 5.042969 23.429688 5.0625 23.421875 5.089844 C 23.417969 5.09375 23.414062 5.097656 23.40625 5.101562 C 23.515625 5.285156 23.570312 5.472656 23.457031 5.617188 C 23.351562 5.746094 23.210938 5.75 23.070312 5.695312 C 23.039062 5.757812 22.992188 5.8125 22.925781 5.84375 C 22.972656 5.894531 23.015625 5.949219 23.058594 6.007812 C 23.140625 6.113281 23.222656 6.347656 23.050781 6.417969 C 22.816406 6.507812 22.589844 6.367188 22.414062 6.214844 C 22.425781 6.332031 22.410156 6.4375 22.332031 6.5 C 22.1875 6.617188 21.976562 6.402344 21.886719 6.3125 C 21.847656 6.273438 21.808594 6.230469 21.773438 6.191406 C 21.703125 6.261719 21.625 6.308594 21.53125 6.324219 C 21.351562 6.621094 21.039062 6.398438 20.75 6.097656 C 20.703125 6.257812 20.617188 6.441406 20.476562 6.445312 C 20.390625 6.445312 20.320312 6.410156 20.261719 6.351562 C 20.238281 6.398438 20.199219 6.4375 20.136719 6.457031 C 19.910156 6.535156 19.648438 6.214844 19.507812 6.0625 C 19.511719 6.121094 19.511719 6.179688 19.503906 6.238281 C 19.457031 6.527344 19.246094 6.53125 19.011719 6.417969 C 18.941406 6.386719 18.878906 6.34375 18.816406 6.292969 C 18.964844 6.550781 19.046875 6.832031 18.796875 6.929688 C 18.667969 6.976562 18.539062 6.96875 18.417969 6.921875 C 18.457031 6.980469 18.496094 7.046875 18.527344 7.121094 C 18.609375 7.300781 18.6875 7.59375 18.492188 7.726562 C 18.335938 7.835938 18.078125 7.710938 17.933594 7.640625 C 17.859375 7.601562 17.785156 7.5625 17.707031 7.523438 C 17.707031 7.582031 17.730469 7.640625 17.796875 7.699219 C 18.148438 8.015625 18.167969 8.554688 17.738281 8.652344 C 17.777344 8.800781 17.769531 8.957031 17.660156 9.109375 C 17.527344 9.300781 17.328125 9.222656 17.167969 9.082031 C 17.152344 9.472656 16.890625 9.875 16.484375 9.875 C 16.476562 9.960938 16.464844 10.039062 16.453125 10.113281 C 16.421875 10.285156 16.347656 10.363281 16.261719 10.371094 C 16.375 10.839844 16.328125 11.441406 16.039062 11.785156 C 15.988281 11.847656 15.910156 11.816406 15.875 11.753906 C 15.78125 11.578125 15.738281 11.320312 15.707031 11.082031 C 15.578125 11.203125 15.382812 11.25 15.183594 11.242188 C 15.324219 11.445312 15.382812 11.675781 15.226562 11.800781 C 15.519531 11.945312 15.742188 12.222656 15.839844 12.535156 C 15.902344 12.578125 15.964844 12.632812 16.015625 12.6875 C 16.164062 12.84375 16.351562 13.054688 16.308594 13.292969 C 16.257812 13.566406 15.992188 13.644531 15.75 13.59375 C 15.625 13.5625 15.507812 13.496094 15.390625 13.4375 C 15.417969 13.523438 15.421875 13.613281 15.402344 13.683594 C 15.398438 13.699219 15.390625 13.710938 15.386719 13.722656 C 15.476562 13.828125 15.539062 13.953125 15.539062 14.085938 C 15.542969 14.265625 15.445312 14.398438 15.320312 14.441406 C 15.355469 14.484375 15.386719 14.53125 15.417969 14.582031 C 15.511719 14.746094 15.546875 14.871094 15.382812 14.992188 C 15.226562 15.105469 14.980469 14.945312 14.792969 14.894531 C 14.886719 15.199219 15.042969 15.511719 14.867188 15.8125 C 14.785156 15.957031 14.636719 15.980469 14.484375 15.953125 C 14.480469 16.199219 14.425781 16.453125 14.257812 16.539062 C 14.054688 16.644531 13.921875 16.460938 13.832031 16.183594 C 13.828125 16.1875 13.824219 16.195312 13.820312 16.199219 C 13.539062 16.425781 13.257812 15.910156 13.082031 15.527344 C 13.007812 15.753906 12.890625 15.964844 12.625 15.839844 C 12.402344 15.738281 12.332031 15.527344 12.3125 15.308594 C 12.007812 15.429688 11.644531 15.144531 11.460938 14.824219 C 11.394531 14.941406 11.285156 15.050781 11.15625 15.027344 C 10.96875 14.992188 10.855469 14.832031 10.777344 14.636719 C 10.6875 14.835938 10.53125 14.984375 10.300781 14.949219 C 10.050781 14.914062 9.984375 14.605469 10.003906 14.304688 C 9.96875 14.351562 9.925781 14.386719 9.878906 14.398438 C 9.664062 14.441406 9.570312 14.230469 9.53125 13.992188 C 9.496094 14.027344 9.457031 14.0625 9.40625 14.089844 C 9.242188 14.183594 9.050781 14.203125 8.910156 14.058594 C 8.859375 14.007812 8.820312 13.941406 8.792969 13.871094 C 8.695312 13.929688 8.570312 13.933594 8.449219 13.835938 C 8.371094 13.777344 8.332031 13.707031 8.316406 13.632812 C 8.316406 13.628906 8.3125 13.625 8.3125 13.625 C 8.3125 13.621094 8.3125 13.617188 8.3125 13.609375 C 8.300781 13.539062 8.3125 13.460938 8.335938 13.382812 C 8.308594 13.382812 8.28125 13.378906 8.253906 13.378906 C 8.128906 13.453125 7.964844 13.464844 7.839844 13.367188 C 7.683594 13.238281 7.667969 13.046875 7.710938 12.859375 C 7.714844 12.832031 7.726562 12.804688 7.738281 12.777344 C 7.605469 12.851562 7.398438 12.808594 7.277344 12.722656 C 7.121094 12.617188 7.140625 12.441406 7.214844 12.269531 C 7.105469 12.300781 6.992188 12.300781 6.878906 12.261719 C 6.628906 12.171875 6.65625 11.90625 6.777344 11.671875 C 6.632812 11.617188 6.433594 11.542969 6.355469 11.410156 C 6.269531 11.269531 6.34375 11.125 6.484375 11.050781 C 6.519531 11.03125 6.558594 11.015625 6.59375 11 C 6.445312 10.90625 6.308594 10.789062 6.203125 10.648438 C 6.175781 10.617188 6.160156 10.582031 6.148438 10.546875 C 6.132812 10.523438 6.121094 10.5 6.117188 10.472656 C 6.105469 10.429688 6.121094 10.378906 6.160156 10.355469 C 6.179688 10.320312 6.207031 10.289062 6.253906 10.269531 C 6.261719 10.265625 6.277344 10.261719 6.289062 10.257812 C 6.296875 10.242188 6.308594 10.230469 6.324219 10.214844 C 6.21875 10.105469 6.121094 9.980469 6.09375 9.828125 C 6.058594 9.644531 6.21875 9.539062 6.378906 9.558594 C 6.382812 9.558594 6.386719 9.558594 6.386719 9.558594 C 6.382812 9.550781 6.375 9.546875 6.367188 9.539062 C 6.261719 9.433594 6.171875 9.226562 6.285156 9.085938 C 6.320312 9.039062 6.355469 9.007812 6.398438 8.980469 C 6.242188 8.914062 6.097656 8.828125 6.015625 8.695312 C 5.890625 8.492188 6.007812 8.34375 6.210938 8.273438 C 6.28125 8.25 6.351562 8.242188 6.425781 8.242188 C 6.433594 8.207031 6.460938 8.175781 6.492188 8.152344 C 6.296875 8.0625 6.097656 7.9375 6.042969 7.734375 C 6.007812 7.601562 6.113281 7.558594 6.230469 7.539062 C 5.964844 7.40625 5.632812 7.210938 5.796875 6.960938 Z M 5.796875 6.960938 " fill-opacity="1" fill-rule="nonzero"/></g><path fill="#1d1c1a" d="M 5.796875 6.960938 C 5.851562 6.875 6.007812 6.871094 6.121094 6.867188 C 6.078125 6.789062 6.050781 6.71875 6.046875 6.679688 C 6.027344 6.496094 6.144531 6.433594 6.285156 6.433594 C 6.242188 6.320312 6.230469 6.195312 6.3125 6.109375 C 6.367188 6.054688 6.4375 6.042969 6.507812 6.050781 C 6.449219 5.910156 6.414062 5.757812 6.410156 5.617188 C 6.40625 5.449219 6.507812 5.324219 6.65625 5.265625 C 6.742188 5.234375 6.832031 5.246094 6.917969 5.277344 C 6.765625 5.046875 6.761719 4.695312 6.921875 4.488281 C 7 4.394531 7.121094 4.34375 7.246094 4.328125 C 6.992188 4.613281 7.019531 5.121094 7.417969 5.238281 C 7.203125 5.539062 7.179688 5.992188 7.433594 6.222656 C 7.167969 6.300781 6.917969 6.484375 6.996094 6.652344 C 6.816406 6.75 6.667969 6.90625 6.640625 7.105469 C 6.605469 7.359375 6.796875 7.457031 7.003906 7.472656 C 7.003906 7.476562 7 7.476562 7 7.480469 C 6.917969 7.503906 6.839844 7.550781 6.792969 7.632812 C 6.710938 7.761719 6.703125 7.929688 6.75 8.074219 C 6.804688 8.257812 6.957031 8.453125 7.132812 8.476562 C 7.101562 8.507812 7.066406 8.542969 7.046875 8.578125 C 6.957031 8.714844 6.941406 8.855469 7.015625 9.003906 C 7.09375 9.164062 7.292969 9.246094 7.46875 9.226562 C 7.46875 9.230469 7.46875 9.230469 7.46875 9.234375 C 7.480469 9.351562 7.539062 9.464844 7.648438 9.515625 C 7.777344 9.574219 7.925781 9.558594 8.035156 9.488281 C 7.945312 9.667969 7.953125 9.867188 8.191406 9.992188 C 8.308594 10.054688 8.441406 10.082031 8.566406 10.074219 C 8.464844 10.324219 8.59375 10.582031 8.921875 10.640625 C 9.117188 10.675781 9.296875 10.578125 9.453125 10.441406 C 9.390625 10.640625 9.375 10.847656 9.519531 11.007812 C 9.675781 11.179688 9.839844 11.171875 9.980469 11.082031 C 9.984375 11.226562 10.042969 11.351562 10.230469 11.382812 C 10.285156 11.394531 10.332031 11.390625 10.375 11.382812 C 10.449219 11.707031 10.671875 12.011719 11.054688 11.945312 C 11.382812 11.890625 11.457031 11.652344 11.410156 11.402344 C 11.429688 11.40625 11.453125 11.410156 11.472656 11.410156 C 11.511719 11.410156 11.546875 11.394531 11.578125 11.375 C 11.722656 11.40625 11.847656 11.363281 11.925781 11.179688 C 11.949219 11.125 11.960938 11.0625 11.964844 11.003906 C 11.980469 11.023438 11.992188 11.039062 12.007812 11.058594 C 12.144531 11.210938 12.355469 11.429688 12.585938 11.386719 C 12.976562 11.316406 12.863281 11.003906 12.683594 10.722656 C 12.960938 10.890625 13.308594 10.980469 13.425781 10.605469 C 13.523438 10.285156 13.324219 10.070312 13.058594 9.984375 C 13.09375 9.976562 13.128906 9.96875 13.164062 9.949219 C 13.320312 9.863281 13.386719 9.679688 13.378906 9.511719 C 13.371094 9.390625 13.320312 9.273438 13.238281 9.183594 C 13.457031 9.335938 13.695312 9.425781 13.898438 9.335938 C 14.242188 9.183594 14.0625 8.796875 13.820312 8.496094 C 14.117188 8.679688 14.527344 8.859375 14.621094 8.453125 C 14.644531 8.355469 14.636719 8.253906 14.617188 8.15625 C 14.875 8.277344 15.015625 8.109375 15.050781 7.882812 C 15.160156 7.933594 15.273438 7.945312 15.371094 7.882812 C 15.5 7.796875 15.527344 7.648438 15.492188 7.496094 C 15.6875 7.683594 15.921875 7.816406 16.105469 7.664062 C 16.21875 7.574219 16.25 7.40625 16.226562 7.234375 C 16.324219 7.269531 16.425781 7.289062 16.519531 7.261719 C 16.730469 7.199219 16.753906 6.996094 16.660156 6.820312 C 16.566406 6.632812 16.386719 6.484375 16.210938 6.359375 C 16.582031 6.320312 16.582031 5.882812 16.398438 5.542969 C 16.59375 5.582031 16.78125 5.511719 16.859375 5.257812 C 16.875 5.203125 16.878906 5.148438 16.875 5.09375 C 17.097656 5.097656 17.277344 5.011719 17.246094 4.804688 C 17.394531 4.867188 17.542969 4.878906 17.714844 4.820312 C 17.761719 4.800781 17.761719 4.753906 17.746094 4.710938 C 17.738281 4.6875 17.730469 4.667969 17.722656 4.644531 C 18.027344 4.773438 18.515625 4.914062 18.46875 4.53125 C 18.523438 4.554688 18.578125 4.582031 18.632812 4.601562 C 18.773438 4.652344 19.011719 4.726562 19.144531 4.613281 C 19.292969 4.488281 19.261719 4.238281 19.1875 4.078125 C 19.152344 4.011719 19.113281 3.941406 19.066406 3.875 C 19.078125 3.875 19.09375 3.878906 19.105469 3.875 C 19.429688 4.140625 19.847656 4.324219 20.183594 4.183594 C 20.535156 4.039062 20.476562 3.695312 20.304688 3.398438 C 20.289062 3.355469 20.269531 3.316406 20.25 3.273438 C 20.300781 3.292969 20.355469 3.308594 20.410156 3.320312 C 20.675781 3.433594 20.96875 3.503906 21.203125 3.453125 C 21.410156 3.410156 21.527344 3.265625 21.519531 3.054688 C 21.515625 3 21.5 2.945312 21.476562 2.898438 C 21.640625 2.894531 21.777344 2.84375 21.769531 2.671875 C 21.761719 2.480469 21.582031 2.289062 21.417969 2.214844 C 21.410156 2.1875 21.398438 2.15625 21.378906 2.125 C 21.246094 1.886719 20.980469 1.761719 20.71875 1.753906 C 20.792969 1.640625 20.832031 1.511719 20.84375 1.382812 C 20.898438 1.46875 20.933594 1.585938 20.957031 1.695312 C 20.988281 1.671875 21.019531 1.648438 21.054688 1.628906 C 21.183594 1.5625 21.351562 1.5625 21.425781 1.710938 C 21.4375 1.730469 21.441406 1.746094 21.449219 1.765625 C 21.460938 1.757812 21.476562 1.753906 21.488281 1.75 C 21.699219 1.691406 21.84375 1.9375 21.882812 2.105469 C 21.886719 2.121094 21.890625 2.136719 21.890625 2.152344 C 22.023438 1.980469 22.269531 1.894531 22.367188 2.195312 C 22.390625 2.261719 22.402344 2.332031 22.40625 2.402344 C 22.449219 2.390625 22.496094 2.382812 22.542969 2.378906 C 22.753906 2.367188 22.882812 2.511719 22.890625 2.710938 C 22.894531 2.746094 22.886719 2.78125 22.878906 2.8125 C 22.882812 2.816406 22.890625 2.816406 22.894531 2.820312 C 23.023438 2.921875 23.039062 3.097656 23.023438 3.253906 C 23.042969 3.25 23.058594 3.242188 23.074219 3.238281 C 23.238281 3.195312 23.382812 3.210938 23.492188 3.355469 C 23.574219 3.464844 23.589844 3.59375 23.5625 3.726562 C 23.648438 3.773438 23.71875 3.851562 23.742188 3.945312 C 23.777344 4.078125 23.703125 4.222656 23.625 4.339844 C 23.820312 4.453125 23.96875 4.640625 23.976562 4.851562 C 23.984375 5.085938 23.648438 5.074219 23.4375 5.023438 C 23.4375 5.042969 23.429688 5.0625 23.421875 5.089844 C 23.417969 5.097656 23.414062 5.097656 23.40625 5.101562 C 23.515625 5.285156 23.570312 5.472656 23.457031 5.617188 C 23.351562 5.746094 23.210938 5.75 23.070312 5.695312 C 23.039062 5.761719 22.992188 5.8125 22.925781 5.84375 C 22.972656 5.898438 23.015625 5.949219 23.058594 6.007812 C 23.140625 6.113281 23.222656 6.347656 23.050781 6.417969 C 22.816406 6.507812 22.589844 6.367188 22.414062 6.21875 C 22.425781 6.332031 22.410156 6.441406 22.332031 6.5 C 22.1875 6.617188 21.976562 6.402344 21.886719 6.3125 C 21.847656 6.273438 21.808594 6.230469 21.773438 6.191406 C 21.703125 6.261719 21.625 6.308594 21.53125 6.324219 C 21.351562 6.621094 21.039062 6.398438 20.75 6.097656 C 20.703125 6.261719 20.617188 6.441406 20.476562 6.445312 C 20.390625 6.445312 20.320312 6.410156 20.261719 6.351562 C 20.238281 6.398438 20.199219 6.4375 20.136719 6.457031 C 19.910156 6.535156 19.648438 6.21875 19.507812 6.0625 C 19.511719 6.121094 19.511719 6.179688 19.503906 6.238281 C 19.457031 6.53125 19.246094 6.53125 19.011719 6.417969 C 18.941406 6.386719 18.878906 6.34375 18.816406 6.292969 C 18.964844 6.550781 19.046875 6.832031 18.796875 6.929688 C 18.667969 6.976562 18.539062 6.96875 18.417969 6.921875 C 18.457031 6.980469 18.496094 7.046875 18.527344 7.121094 C 18.609375 7.300781 18.6875 7.59375 18.492188 7.726562 C 18.335938 7.835938 18.078125 7.710938 17.933594 7.640625 C 17.859375 7.601562 17.785156 7.5625 17.707031 7.523438 C 17.707031 7.582031 17.730469 7.640625 17.796875 7.699219 C 18.148438 8.015625 18.167969 8.554688 17.738281 8.652344 C 17.777344 8.804688 17.769531 8.957031 17.660156 9.109375 C 17.527344 9.300781 17.328125 9.226562 17.167969 9.082031 C 17.152344 9.472656 16.890625 9.875 16.484375 9.878906 C 16.476562 9.960938 16.464844 10.039062 16.453125 10.113281 C 16.421875 10.285156 16.347656 10.363281 16.261719 10.371094 C 16.375 10.839844 16.328125 11.441406 16.039062 11.789062 C 15.988281 11.847656 15.910156 11.816406 15.875 11.753906 C 15.78125 11.578125 15.738281 11.320312 15.707031 11.085938 C 15.578125 11.207031 15.382812 11.253906 15.183594 11.242188 C 15.324219 11.445312 15.382812 11.679688 15.226562 11.800781 C 15.519531 11.945312 15.742188 12.222656 15.839844 12.535156 C 15.902344 12.582031 15.964844 12.632812 16.015625 12.6875 C 16.164062 12.84375 16.351562 13.058594 16.308594 13.292969 C 16.257812 13.566406 15.992188 13.644531 15.75 13.59375 C 15.625 13.566406 15.507812 13.496094 15.390625 13.4375 C 15.417969 13.527344 15.421875 13.613281 15.402344 13.6875 C 15.398438 13.699219 15.390625 13.710938 15.386719 13.722656 C 15.476562 13.828125 15.539062 13.953125 15.539062 14.085938 C 15.542969 14.265625 15.445312 14.398438 15.320312 14.441406 C 15.355469 14.484375 15.386719 14.53125 15.417969 14.582031 C 15.511719 14.746094 15.546875 14.871094 15.382812 14.992188 C 15.226562 15.105469 14.980469 14.945312 14.792969 14.894531 C 14.886719 15.199219 15.042969 15.515625 14.867188 15.8125 C 14.785156 15.957031 14.636719 15.980469 14.484375 15.953125 C 14.480469 16.199219 14.425781 16.453125 14.257812 16.539062 C 14.054688 16.648438 13.921875 16.460938 13.832031 16.183594 C 13.828125 16.1875 13.824219 16.195312 13.820312 16.199219 C 13.539062 16.425781 13.257812 15.910156 13.082031 15.527344 C 13.007812 15.753906 12.890625 15.964844 12.625 15.84375 C 12.402344 15.738281 12.332031 15.53125 12.3125 15.308594 C 12.007812 15.429688 11.644531 15.144531 11.460938 14.824219 C 11.394531 14.941406 11.285156 15.050781 11.15625 15.027344 C 10.96875 14.996094 10.855469 14.832031 10.777344 14.636719 C 10.6875 14.835938 10.53125 14.984375 10.300781 14.953125 C 10.050781 14.914062 9.984375 14.605469 10.003906 14.304688 C 9.96875 14.351562 9.925781 14.386719 9.878906 14.398438 C 9.664062 14.441406 9.570312 14.230469 9.53125 13.992188 C 9.496094 14.03125 9.457031 14.0625 9.40625 14.089844 C 9.242188 14.183594 9.050781 14.207031 8.910156 14.058594 C 8.859375 14.007812 8.820312 13.945312 8.792969 13.875 C 8.695312 13.929688 8.570312 13.933594 8.449219 13.835938 C 8.371094 13.777344 8.332031 13.707031 8.316406 13.632812 C 8.316406 13.628906 8.3125 13.628906 8.3125 13.625 C 8.3125 13.621094 8.3125 13.617188 8.3125 13.613281 C 8.300781 13.539062 8.3125 13.460938 8.335938 13.382812 C 8.308594 13.382812 8.28125 13.382812 8.253906 13.378906 C 8.128906 13.453125 7.964844 13.464844 7.839844 13.367188 C 7.683594 13.242188 7.667969 13.046875 7.710938 12.863281 C 7.714844 12.832031 7.726562 12.804688 7.738281 12.777344 C 7.605469 12.851562 7.398438 12.808594 7.277344 12.722656 C 7.121094 12.617188 7.140625 12.441406 7.214844 12.269531 C 7.105469 12.300781 6.992188 12.304688 6.878906 12.261719 C 6.628906 12.171875 6.65625 11.90625 6.777344 11.671875 C 6.632812 11.617188 6.433594 11.542969 6.355469 11.414062 C 6.269531 11.269531 6.34375 11.125 6.484375 11.050781 C 6.519531 11.03125 6.558594 11.015625 6.59375 11.003906 C 6.445312 10.90625 6.308594 10.789062 6.203125 10.648438 C 6.175781 10.617188 6.160156 10.582031 6.148438 10.546875 C 6.132812 10.527344 6.121094 10.5 6.117188 10.472656 C 6.105469 10.429688 6.121094 10.378906 6.160156 10.355469 C 6.179688 10.320312 6.207031 10.289062 6.253906 10.269531 C 6.261719 10.265625 6.277344 10.261719 6.289062 10.257812 C 6.296875 10.242188 6.308594 10.230469 6.324219 10.21875 C 6.21875 10.105469 6.121094 9.984375 6.09375 9.828125 C 6.058594 9.644531 6.21875 9.539062 6.378906 9.558594 C 6.382812 9.558594 6.386719 9.558594 6.386719 9.558594 C 6.382812 9.550781 6.375 9.546875 6.367188 9.539062 C 6.261719 9.433594 6.171875 9.226562 6.285156 9.085938 C 6.320312 9.042969 6.355469 9.007812 6.398438 8.980469 C 6.242188 8.914062 6.097656 8.828125 6.015625 8.695312 C 5.890625 8.492188 6.007812 8.34375 6.210938 8.273438 C 6.28125 8.25 6.351562 8.242188 6.425781 8.242188 C 6.433594 8.207031 6.460938 8.175781 6.492188 8.152344 C 6.296875 8.0625 6.097656 7.9375 6.042969 7.738281 C 6.007812 7.605469 6.113281 7.558594 6.230469 7.539062 C 5.964844 7.40625 5.632812 7.210938 5.796875 6.960938 Z M 21.160156 5.679688 C 21.175781 5.695312 21.191406 5.714844 21.210938 5.730469 C 21.296875 5.816406 21.367188 5.683594 21.292969 5.605469 C 21.277344 5.589844 21.261719 5.574219 21.246094 5.558594 C 21.15625 5.46875 21.085938 5.605469 21.160156 5.679688 Z M 21.203125 5.386719 C 21.246094 5.40625 21.285156 5.402344 21.304688 5.355469 C 21.3125 5.339844 21.316406 5.324219 21.320312 5.308594 C 21.332031 5.304688 21.34375 5.300781 21.355469 5.292969 C 21.394531 5.269531 21.382812 5.203125 21.355469 5.171875 C 21.347656 5.160156 21.332031 5.148438 21.320312 5.136719 C 21.292969 5.050781 21.214844 4.980469 21.109375 4.941406 C 21.066406 4.925781 21.042969 4.941406 21.039062 4.972656 C 21.03125 4.96875 21.023438 4.96875 21.015625 4.964844 C 20.976562 4.953125 20.929688 4.980469 20.933594 5.027344 C 20.941406 5.195312 21.054688 5.320312 21.203125 5.386719 Z M 20.472656 5.347656 C 20.496094 5.371094 20.519531 5.390625 20.554688 5.390625 C 20.59375 5.390625 20.617188 5.363281 20.621094 5.328125 C 20.621094 5.320312 20.621094 5.316406 20.621094 5.3125 C 20.621094 5.257812 20.570312 5.210938 20.523438 5.203125 C 20.523438 5.203125 20.519531 5.203125 20.515625 5.203125 C 20.515625 5.203125 20.515625 5.203125 20.511719 5.203125 C 20.445312 5.1875 20.40625 5.285156 20.472656 5.347656 Z M 16.996094 8.675781 C 17.023438 8.679688 17.054688 8.65625 17.058594 8.632812 C 17.085938 8.476562 17.035156 8.277344 16.917969 8.164062 C 16.875 8.125 16.804688 8.078125 16.746094 8.101562 C 16.738281 8.105469 16.730469 8.113281 16.726562 8.117188 C 16.6875 8.105469 16.648438 8.097656 16.605469 8.097656 C 16.566406 8.097656 16.546875 8.125 16.542969 8.160156 C 16.519531 8.429688 16.746094 8.640625 16.996094 8.675781 Z M 16.453125 8.535156 C 16.5625 8.535156 16.507812 8.359375 16.414062 8.359375 C 16.304688 8.359375 16.359375 8.535156 16.453125 8.535156 Z M 15.929688 8.851562 C 15.925781 8.878906 15.933594 8.910156 15.964844 8.933594 C 15.984375 8.953125 16.003906 8.96875 16.027344 8.972656 C 16.066406 8.984375 16.09375 8.96875 16.109375 8.933594 C 16.140625 8.867188 16.066406 8.789062 16.007812 8.765625 C 15.964844 8.75 15.925781 8.785156 15.925781 8.824219 C 15.925781 8.835938 15.925781 8.84375 15.929688 8.851562 Z M 12.824219 13.257812 C 12.863281 13.265625 12.886719 13.253906 12.90625 13.21875 C 12.988281 13.035156 12.90625 12.757812 12.664062 12.777344 C 12.660156 12.777344 12.660156 12.777344 12.652344 12.78125 C 12.632812 12.769531 12.617188 12.761719 12.589844 12.753906 C 12.542969 12.746094 12.511719 12.769531 12.507812 12.816406 C 12.484375 13.023438 12.613281 13.21875 12.824219 13.257812 Z M 12.300781 12.761719 C 12.410156 12.761719 12.351562 12.585938 12.261719 12.585938 C 12.152344 12.585938 12.207031 12.761719 12.300781 12.761719 Z M 11.773438 13.148438 C 11.785156 13.179688 11.792969 13.210938 11.816406 13.238281 C 11.894531 13.328125 12.015625 13.242188 11.9375 13.152344 C 11.933594 13.152344 11.933594 13.148438 11.929688 13.148438 C 11.917969 13.105469 11.882812 13.0625 11.835938 13.0625 C 11.789062 13.058594 11.761719 13.105469 11.773438 13.148438 Z M 8.988281 11.714844 C 8.988281 11.714844 8.992188 11.714844 8.992188 11.71875 C 8.992188 11.726562 8.996094 11.738281 8.996094 11.746094 C 9 11.800781 9.035156 11.859375 9.09375 11.859375 L 9.121094 11.859375 C 9.167969 11.859375 9.1875 11.816406 9.179688 11.773438 C 9.171875 11.738281 9.152344 11.710938 9.140625 11.679688 C 9.140625 11.652344 9.132812 11.632812 9.125 11.609375 C 9.097656 11.539062 9.003906 11.523438 8.976562 11.578125 C 8.941406 11.605469 8.933594 11.671875 8.988281 11.714844 Z M 8.089844 10.921875 C 8.113281 11.035156 8.167969 11.171875 8.292969 11.203125 C 8.429688 11.234375 8.539062 11.117188 8.527344 10.984375 C 8.515625 10.851562 8.460938 10.699219 8.339844 10.625 C 8.320312 10.617188 8.304688 10.613281 8.292969 10.613281 C 8.265625 10.59375 8.234375 10.570312 8.199219 10.554688 C 8.15625 10.535156 8.117188 10.539062 8.097656 10.585938 C 8.054688 10.683594 8.070312 10.820312 8.089844 10.921875 Z M 7.550781 10.550781 C 7.554688 10.546875 7.558594 10.546875 7.566406 10.542969 C 7.589844 10.53125 7.609375 10.511719 7.609375 10.480469 C 7.609375 10.4375 7.59375 10.410156 7.570312 10.375 C 7.511719 10.289062 7.414062 10.34375 7.433594 10.425781 C 7.417969 10.488281 7.484375 10.578125 7.550781 10.550781 Z M 7.347656 11.476562 C 7.40625 11.5 7.4375 11.441406 7.429688 11.394531 C 7.429688 11.386719 7.425781 11.378906 7.421875 11.371094 C 7.417969 11.351562 7.410156 11.339844 7.402344 11.324219 C 7.402344 11.324219 7.398438 11.324219 7.398438 11.324219 C 7.382812 11.222656 7.222656 11.195312 7.242188 11.316406 C 7.25 11.382812 7.285156 11.453125 7.347656 11.476562 Z M 7.347656 11.476562 " fill-opacity="0.3" fill-rule="nonzero"/><path fill="#a57752" d="M 14.375 9.933594 C 14.492188 9.863281 14.621094 9.820312 14.753906 9.8125 C 15.003906 9.792969 15.261719 9.878906 15.476562 10.050781 C 15.984375 10.457031 16.246094 11.402344 16.296875 12.074219 C 16.320312 12.40625 16.351562 12.859375 16.167969 13.125 C 15.859375 13.570312 15.273438 12.835938 14.964844 12.582031 C 14.339844 12.074219 14.078125 11.992188 13.941406 11.363281 C 13.753906 10.515625 14.082031 10.117188 14.375 9.933594 Z M 14.375 9.933594 " fill-opacity="1" fill-rule="nonzero"/><path fill="#916a48" d="M 14.703125 11.417969 C 14.640625 11.054688 14.707031 10.640625 15.148438 10.644531 C 15.628906 10.648438 15.625 11.101562 15.640625 11.449219 C 15.644531 11.574219 15.664062 11.824219 15.773438 11.917969 C 15.835938 11.96875 15.917969 12.082031 15.941406 12.160156 C 15.996094 12.359375 15.859375 12.414062 15.691406 12.414062 C 15.273438 12.410156 14.9375 12.097656 14.789062 11.730469 C 14.75 11.640625 14.71875 11.53125 14.703125 11.417969 Z M 14.703125 11.417969 " fill-opacity="1" fill-rule="nonzero"/><path fill="#3c3c3b" d="M 3.234375 19.550781 C 3.296875 19.472656 3.410156 19.425781 3.535156 19.402344 C 3.355469 19.109375 3.320312 18.726562 3.667969 18.609375 C 3.726562 18.589844 3.789062 18.589844 3.855469 18.597656 C 3.664062 18.429688 3.523438 18.230469 3.671875 18.035156 C 3.707031 17.988281 3.757812 17.960938 3.816406 17.957031 C 3.789062 17.929688 3.757812 17.902344 3.730469 17.875 C 3.652344 17.800781 3.480469 17.601562 3.523438 17.476562 C 3.542969 17.414062 3.585938 17.378906 3.640625 17.359375 C 3.585938 17.304688 3.546875 17.246094 3.535156 17.175781 C 3.503906 16.984375 3.664062 16.925781 3.851562 16.917969 C 3.714844 16.820312 3.605469 16.703125 3.613281 16.554688 C 3.621094 16.292969 3.878906 16.265625 4.140625 16.316406 C 4.023438 16.25 3.921875 16.152344 4.03125 16.042969 C 4.148438 15.929688 4.308594 15.890625 4.480469 15.886719 C 4.265625 15.761719 4.089844 15.597656 4.207031 15.445312 C 4.316406 15.304688 4.542969 15.179688 4.734375 15.128906 C 4.566406 15 4.445312 14.859375 4.558594 14.730469 C 4.65625 14.621094 4.828125 14.589844 4.980469 14.601562 C 4.816406 14.394531 4.734375 14.15625 4.847656 13.929688 C 4.953125 13.722656 5.148438 13.726562 5.339844 13.824219 C 5.503906 13.691406 5.875 13.820312 6.121094 13.839844 C 6.003906 13.707031 5.816406 13.484375 6.003906 13.429688 C 6.15625 13.386719 6.308594 13.476562 6.445312 13.597656 C 6.320312 13.269531 6.226562 12.867188 6.523438 12.871094 C 6.648438 12.875 6.757812 12.957031 6.851562 13.082031 C 6.886719 13.03125 6.941406 12.992188 7.019531 12.960938 C 7.136719 12.917969 7.308594 13.03125 7.398438 13.085938 C 7.507812 13.148438 7.78125 13.515625 7.636719 13.296875 C 7.53125 13.132812 7.585938 12.980469 7.777344 12.992188 C 8.066406 13.011719 8.246094 13.261719 8.40625 13.496094 C 8.402344 13.332031 8.429688 13.160156 8.5625 13.171875 C 8.78125 13.1875 8.921875 13.378906 9.007812 13.597656 C 9.027344 13.5625 9.046875 13.527344 9.070312 13.503906 C 9.199219 13.378906 9.316406 13.492188 9.402344 13.605469 C 9.457031 13.679688 9.496094 13.785156 9.515625 13.894531 C 9.558594 13.914062 9.597656 13.941406 9.636719 13.976562 C 9.699219 13.773438 9.828125 13.585938 9.996094 13.605469 C 10.378906 13.652344 10.300781 13.910156 10.179688 14.148438 C 10.238281 14.136719 10.292969 14.160156 10.332031 14.257812 C 10.351562 14.3125 10.359375 14.4375 10.328125 14.488281 C 10.226562 14.664062 10.488281 14.460938 10.585938 14.414062 C 10.96875 14.238281 11.074219 14.414062 11.023438 14.585938 C 11.175781 14.519531 11.324219 14.476562 11.410156 14.695312 C 11.519531 14.976562 11.25 15.011719 11.039062 15.039062 C 11.300781 15.226562 11.769531 15.566406 11.605469 15.785156 C 11.480469 15.949219 11.449219 15.8125 11.5625 16.0625 C 11.652344 16.257812 11.707031 16.421875 11.636719 16.628906 C 11.601562 16.75 11.414062 16.769531 11.320312 16.738281 C 11.242188 16.710938 11.457031 17.070312 11.445312 17.183594 C 11.445312 17.203125 11.425781 17.3125 11.375 17.328125 C 11.453125 17.398438 11.539062 17.511719 11.601562 17.597656 C 11.859375 17.917969 11.582031 18.070312 11.28125 17.980469 C 11.238281 17.964844 11.046875 17.9375 11.019531 17.886719 C 11.082031 18.015625 11.121094 18.144531 11.15625 18.28125 C 11.1875 18.40625 11.148438 18.621094 10.996094 18.660156 C 10.882812 18.6875 10.898438 18.683594 10.78125 18.667969 C 10.945312 18.828125 11.105469 18.996094 11.152344 19.226562 C 11.199219 19.433594 11.105469 19.511719 10.960938 19.523438 C 10.984375 19.550781 11.007812 19.578125 11.019531 19.613281 C 11.085938 19.753906 11.058594 19.960938 10.851562 19.957031 C 10.8125 19.957031 10.773438 19.949219 10.730469 19.941406 C 10.847656 20.070312 11 20.289062 10.929688 20.429688 C 10.820312 20.644531 10.59375 20.5625 10.414062 20.480469 C 10.386719 20.46875 10.359375 20.457031 10.332031 20.441406 C 10.3125 20.445312 10.292969 20.441406 10.273438 20.4375 C 10.355469 20.558594 10.429688 20.699219 10.359375 20.78125 C 10.265625 20.890625 10.066406 20.796875 9.972656 20.730469 C 9.960938 20.726562 9.957031 20.71875 9.945312 20.710938 C 9.945312 20.714844 9.941406 20.71875 9.9375 20.722656 C 9.921875 20.734375 9.90625 20.746094 9.886719 20.75 C 9.964844 20.886719 10.039062 21.042969 9.996094 21.199219 C 9.953125 21.363281 9.726562 21.234375 9.648438 21.183594 C 9.617188 21.160156 9.585938 21.132812 9.554688 21.105469 C 9.535156 21.171875 9.511719 21.226562 9.472656 21.265625 C 9.339844 21.390625 9.1875 21.332031 9.046875 21.199219 C 9.042969 21.289062 9.015625 21.367188 8.945312 21.421875 C 8.78125 21.546875 8.558594 21.445312 8.398438 21.347656 C 8.457031 21.585938 8.425781 21.820312 8.203125 21.855469 C 8.089844 21.875 7.972656 21.824219 7.871094 21.757812 C 7.886719 21.9375 7.820312 22.152344 7.597656 22.113281 C 7.460938 22.085938 7.347656 21.996094 7.246094 21.890625 C 7.234375 21.910156 7.226562 21.933594 7.210938 21.953125 C 6.945312 22.289062 6.6875 22.003906 6.519531 21.699219 C 6.503906 21.730469 6.488281 21.761719 6.460938 21.789062 C 6.355469 21.902344 6.1875 21.910156 6.054688 21.863281 C 6.019531 21.851562 5.988281 21.835938 5.960938 21.820312 C 5.902344 22.007812 5.796875 22.164062 5.621094 22.191406 C 5.375 22.230469 5.285156 21.925781 5.253906 21.71875 C 5.175781 21.832031 5.0625 21.90625 4.921875 21.867188 C 4.753906 21.816406 4.660156 21.648438 4.613281 21.472656 C 4.578125 21.515625 4.539062 21.546875 4.484375 21.566406 C 4.265625 21.640625 4.152344 21.355469 4.113281 21.148438 C 4.082031 21.164062 4.046875 21.183594 4.015625 21.195312 C 3.851562 21.253906 3.75 21.035156 3.738281 20.910156 C 3.730469 20.839844 3.738281 20.761719 3.757812 20.6875 C 3.691406 20.636719 3.632812 20.574219 3.589844 20.515625 C 3.523438 20.425781 3.5 20.316406 3.515625 20.214844 C 3.273438 20.050781 3.046875 19.773438 3.234375 19.550781 Z M 3.234375 19.550781 " fill-opacity="1" fill-rule="nonzero"/><path fill="#1d1c1a" d="M 3.234375 19.550781 C 3.296875 19.472656 3.410156 19.425781 3.535156 19.402344 C 3.355469 19.109375 3.320312 18.726562 3.667969 18.609375 C 3.726562 18.589844 3.789062 18.589844 3.855469 18.597656 C 3.664062 18.429688 3.523438 18.230469 3.671875 18.035156 C 3.707031 17.988281 3.757812 17.960938 3.816406 17.957031 C 3.789062 17.929688 3.757812 17.902344 3.730469 17.875 C 3.652344 17.800781 3.480469 17.601562 3.523438 17.476562 C 3.542969 17.414062 3.585938 17.378906 3.640625 17.359375 C 3.585938 17.304688 3.546875 17.246094 3.535156 17.175781 C 3.503906 16.984375 3.664062 16.925781 3.851562 16.917969 C 3.714844 16.820312 3.605469 16.703125 3.613281 16.554688 C 3.621094 16.292969 3.878906 16.265625 4.140625 16.316406 C 4.023438 16.25 3.921875 16.152344 4.03125 16.042969 C 4.148438 15.929688 4.308594 15.890625 4.480469 15.886719 C 4.265625 15.761719 4.089844 15.597656 4.207031 15.445312 C 4.316406 15.304688 4.542969 15.179688 4.734375 15.128906 C 4.566406 15 4.445312 14.859375 4.558594 14.730469 C 4.65625 14.621094 4.828125 14.589844 4.980469 14.601562 C 4.816406 14.394531 4.734375 14.15625 4.847656 13.929688 C 4.953125 13.722656 5.148438 13.726562 5.339844 13.824219 C 5.503906 13.691406 5.875 13.820312 6.121094 13.839844 C 6.003906 13.707031 5.816406 13.484375 6.003906 13.429688 C 6.15625 13.386719 6.308594 13.476562 6.445312 13.597656 C 6.320312 13.269531 6.226562 12.867188 6.523438 12.871094 C 6.648438 12.875 6.757812 12.957031 6.851562 13.082031 C 6.886719 13.03125 6.941406 12.992188 7.019531 12.960938 C 7.136719 12.917969 7.308594 13.03125 7.398438 13.085938 C 7.507812 13.148438 7.78125 13.515625 7.636719 13.296875 C 7.53125 13.132812 7.585938 12.980469 7.777344 12.992188 C 8.066406 13.011719 8.246094 13.261719 8.40625 13.496094 C 8.402344 13.332031 8.429688 13.160156 8.5625 13.171875 C 8.78125 13.1875 8.921875 13.378906 9.007812 13.597656 C 9.027344 13.5625 9.046875 13.527344 9.070312 13.503906 C 9.199219 13.378906 9.316406 13.492188 9.402344 13.605469 C 9.457031 13.679688 9.496094 13.785156 9.515625 13.894531 C 9.558594 13.914062 9.597656 13.941406 9.636719 13.976562 C 9.699219 13.773438 9.828125 13.585938 9.996094 13.605469 C 10.378906 13.652344 10.300781 13.910156 10.179688 14.148438 C 10.238281 14.136719 10.292969 14.160156 10.332031 14.257812 C 10.351562 14.3125 10.359375 14.4375 10.328125 14.488281 C 10.226562 14.664062 10.488281 14.460938 10.585938 14.414062 C 10.96875 14.238281 11.074219 14.414062 11.023438 14.585938 C 11.175781 14.519531 11.324219 14.476562 11.410156 14.695312 C 11.519531 14.976562 11.25 15.011719 11.039062 15.039062 C 11.300781 15.226562 11.769531 15.566406 11.605469 15.785156 C 11.480469 15.949219 11.449219 15.8125 11.5625 16.0625 C 11.652344 16.257812 11.707031 16.421875 11.636719 16.628906 C 11.601562 16.75 11.414062 16.769531 11.320312 16.738281 C 11.242188 16.710938 11.457031 17.070312 11.445312 17.183594 C 11.445312 17.203125 11.425781 17.3125 11.375 17.328125 C 11.453125 17.398438 11.539062 17.511719 11.601562 17.597656 C 11.859375 17.917969 11.582031 18.070312 11.28125 17.980469 C 11.238281 17.964844 11.046875 17.9375 11.019531 17.886719 C 11.082031 18.015625 11.121094 18.144531 11.15625 18.28125 C 11.1875 18.40625 11.148438 18.621094 10.996094 18.660156 C 10.882812 18.6875 10.898438 18.683594 10.78125 18.667969 C 10.945312 18.828125 11.105469 18.996094 11.152344 19.226562 C 11.199219 19.433594 11.105469 19.511719 10.960938 19.523438 C 10.984375 19.550781 11.007812 19.578125 11.019531 19.613281 C 11.085938 19.753906 11.058594 19.960938 10.851562 19.957031 C 10.8125 19.957031 10.773438 19.949219 10.730469 19.941406 C 10.847656 20.070312 11 20.289062 10.929688 20.429688 C 10.820312 20.644531 10.59375 20.5625 10.414062 20.480469 C 10.386719 20.46875 10.359375 20.457031 10.332031 20.441406 C 10.3125 20.445312 10.292969 20.441406 10.273438 20.4375 C 10.355469 20.558594 10.429688 20.699219 10.359375 20.78125 C 10.265625 20.890625 10.066406 20.796875 9.972656 20.730469 C 9.960938 20.726562 9.957031 20.71875 9.945312 20.710938 C 9.945312 20.714844 9.941406 20.71875 9.9375 20.722656 C 9.921875 20.734375 9.90625 20.746094 9.886719 20.75 C 9.964844 20.886719 10.039062 21.042969 9.996094 21.199219 C 9.953125 21.363281 9.726562 21.234375 9.648438 21.183594 C 9.617188 21.160156 9.585938 21.132812 9.554688 21.105469 C 9.535156 21.171875 9.511719 21.226562 9.472656 21.265625 C 9.339844 21.390625 9.1875 21.332031 9.046875 21.199219 C 9.042969 21.289062 9.015625 21.367188 8.945312 21.421875 C 8.78125 21.546875 8.558594 21.445312 8.398438 21.347656 C 8.457031 21.585938 8.425781 21.820312 8.203125 21.855469 C 8.089844 21.875 7.972656 21.824219 7.871094 21.757812 C 7.886719 21.9375 7.820312 22.152344 7.597656 22.113281 C 7.460938 22.085938 7.347656 21.996094 7.246094 21.890625 C 7.234375 21.910156 7.226562 21.933594 7.210938 21.953125 C 6.945312 22.289062 6.6875 22.003906 6.519531 21.699219 C 6.503906 21.730469 6.488281 21.761719 6.460938 21.789062 C 6.355469 21.902344 6.1875 21.910156 6.054688 21.863281 C 6.019531 21.851562 5.988281 21.835938 5.960938 21.820312 C 5.902344 22.007812 5.796875 22.164062 5.621094 22.191406 C 5.375 22.230469 5.285156 21.925781 5.253906 21.71875 C 5.175781 21.832031 5.0625 21.90625 4.921875 21.867188 C 4.753906 21.816406 4.660156 21.648438 4.613281 21.472656 C 4.578125 21.515625 4.539062 21.546875 4.484375 21.566406 C 4.265625 21.640625 4.152344 21.355469 4.113281 21.148438 C 4.082031 21.164062 4.046875 21.183594 4.015625 21.195312 C 3.851562 21.253906 3.75 21.035156 3.738281 20.910156 C 3.730469 20.839844 3.738281 20.761719 3.757812 20.6875 C 3.691406 20.636719 3.632812 20.574219 3.589844 20.515625 C 3.523438 20.425781 3.5 20.316406 3.515625 20.214844 C 3.273438 20.050781 3.046875 19.773438 3.234375 19.550781 Z M 9.40625 20.121094 C 9.441406 20.128906 9.476562 20.121094 9.488281 20.082031 C 9.539062 19.898438 9.476562 19.71875 9.332031 19.597656 C 9.296875 19.566406 9.265625 19.566406 9.242188 19.582031 C 9.214844 19.566406 9.183594 19.554688 9.148438 19.550781 C 9.113281 19.542969 9.082031 19.550781 9.070312 19.589844 C 8.992188 19.828125 9.160156 20.082031 9.40625 20.121094 Z M 8.882812 20.164062 C 8.882812 20.199219 8.902344 20.238281 8.9375 20.253906 C 8.960938 20.269531 8.992188 20.289062 9.023438 20.28125 C 9.09375 20.257812 9.0625 20.171875 9.027344 20.132812 C 9.027344 20.132812 9.027344 20.136719 9.03125 20.136719 C 9.007812 20.097656 8.96875 20.054688 8.921875 20.070312 C 8.882812 20.082031 8.871094 20.128906 8.882812 20.164062 Z M 8.527344 19.695312 C 8.582031 19.707031 8.65625 19.703125 8.65625 19.632812 C 8.660156 19.570312 8.613281 19.519531 8.574219 19.476562 C 8.546875 19.445312 8.488281 19.4375 8.460938 19.476562 C 8.445312 19.5 8.449219 19.53125 8.460938 19.554688 C 8.441406 19.601562 8.46875 19.679688 8.527344 19.695312 Z M 6.875 21.328125 C 7.019531 21.398438 7.160156 21.269531 7.199219 21.140625 C 7.253906 20.960938 7.257812 20.738281 7.179688 20.5625 C 7.160156 20.523438 7.09375 20.464844 7.050781 20.507812 C 7.027344 20.53125 7.007812 20.539062 6.972656 20.546875 C 6.957031 20.546875 6.945312 20.554688 6.941406 20.566406 C 6.886719 20.566406 6.835938 20.585938 6.796875 20.628906 C 6.640625 20.789062 6.660156 21.222656 6.875 21.328125 Z M 6.625 20.273438 L 6.652344 20.222656 C 6.683594 20.179688 6.652344 20.097656 6.597656 20.074219 C 6.574219 20.0625 6.554688 20.058594 6.535156 20.074219 C 6.523438 20.074219 6.511719 20.082031 6.507812 20.09375 C 6.496094 20.117188 6.480469 20.136719 6.476562 20.164062 C 6.464844 20.230469 6.574219 20.363281 6.625 20.273438 Z M 5.921875 21.222656 C 5.9375 21.277344 6.019531 21.316406 6.0625 21.265625 C 6.105469 21.210938 6.109375 21.160156 6.105469 21.105469 C 6.117188 21.09375 6.125 21.082031 6.132812 21.074219 C 6.167969 21.019531 6.109375 20.933594 6.054688 20.921875 C 6.042969 20.914062 6.03125 20.90625 6.015625 20.902344 C 5.976562 20.890625 5.929688 20.917969 5.933594 20.964844 C 5.9375 20.980469 5.9375 20.996094 5.941406 21.011719 C 5.929688 21.023438 5.917969 21.039062 5.910156 21.054688 C 5.886719 21.113281 5.902344 21.164062 5.921875 21.222656 Z M 5.199219 21.171875 C 5.226562 21.210938 5.269531 21.230469 5.3125 21.207031 C 5.46875 21.121094 5.523438 20.945312 5.527344 20.773438 C 5.527344 20.753906 5.519531 20.734375 5.507812 20.714844 C 5.503906 20.695312 5.503906 20.675781 5.5 20.65625 C 5.496094 20.613281 5.433594 20.550781 5.382812 20.570312 C 5.304688 20.605469 5.238281 20.664062 5.191406 20.734375 C 5.171875 20.742188 5.160156 20.769531 5.160156 20.796875 C 5.109375 20.917969 5.109375 21.058594 5.199219 21.171875 Z M 5.164062 16.203125 C 5.265625 16.253906 5.378906 16.269531 5.492188 16.28125 C 5.425781 16.34375 5.40625 16.417969 5.496094 16.503906 C 5.617188 16.613281 5.800781 16.617188 5.960938 16.578125 C 5.957031 16.667969 5.976562 16.75 6.050781 16.816406 C 6.109375 16.875 6.175781 16.894531 6.242188 16.886719 C 6.234375 17.035156 6.277344 17.164062 6.429688 17.222656 C 6.6875 17.324219 6.886719 17.140625 7.015625 16.902344 C 7.035156 16.9375 7.0625 16.96875 7.09375 16.992188 C 7.144531 17.03125 7.203125 17.046875 7.261719 17.050781 C 7.25 17.054688 7.238281 17.058594 7.226562 17.078125 C 7.109375 17.304688 6.96875 17.753906 7.292969 17.890625 C 7.4375 17.953125 7.554688 17.886719 7.644531 17.773438 C 7.648438 17.78125 7.65625 17.789062 7.664062 17.796875 C 7.539062 18.085938 7.554688 18.65625 7.957031 18.628906 C 8.085938 18.617188 8.164062 18.53125 8.207031 18.410156 C 8.210938 18.410156 8.210938 18.414062 8.210938 18.417969 C 8.296875 18.558594 8.527344 18.839844 8.710938 18.671875 C 8.757812 18.628906 8.777344 18.582031 8.785156 18.527344 C 9.042969 18.628906 9.40625 18.675781 9.425781 18.308594 C 9.429688 18.230469 9.417969 18.152344 9.394531 18.082031 C 9.699219 18.152344 10.070312 18.164062 10.078125 17.808594 C 10.082031 17.527344 9.921875 17.316406 9.703125 17.171875 C 9.730469 17.148438 9.753906 17.121094 9.765625 17.074219 C 9.804688 16.929688 9.726562 16.796875 9.617188 16.683594 C 9.746094 16.675781 9.859375 16.625 9.839844 16.464844 C 9.835938 16.40625 9.8125 16.355469 9.777344 16.316406 C 10.109375 16.339844 10.695312 16.320312 10.726562 15.976562 C 10.75 15.746094 10.535156 15.515625 10.328125 15.457031 C 10.269531 15.441406 10.210938 15.429688 10.15625 15.425781 C 10.15625 15.425781 10.15625 15.425781 10.15625 15.421875 C 10.214844 15.300781 10.175781 15.171875 10.085938 15.074219 C 10.023438 15.003906 9.933594 14.957031 9.835938 14.941406 C 9.875 14.777344 9.875 14.613281 9.808594 14.5 C 9.742188 14.386719 9.554688 14.324219 9.453125 14.429688 C 9.359375 14.523438 9.316406 14.644531 9.285156 14.769531 C 9.292969 14.589844 9.273438 14.414062 9.179688 14.292969 C 9.097656 14.1875 8.929688 14.082031 8.800781 14.175781 C 8.6875 14.253906 8.625 14.382812 8.582031 14.515625 C 8.492188 14.414062 8.382812 14.324219 8.253906 14.289062 C 8.160156 14.261719 8.101562 14.296875 8.070312 14.359375 C 8.042969 14.3125 8.015625 14.269531 7.992188 14.226562 C 7.917969 14.117188 7.789062 13.929688 7.632812 13.9375 C 7.53125 13.941406 7.492188 14.035156 7.476562 14.140625 C 7.433594 14.097656 7.382812 14.070312 7.324219 14.066406 C 7.195312 14.066406 7.140625 14.171875 7.117188 14.285156 C 7.042969 14.160156 6.945312 14.046875 6.824219 14 C 6.492188 13.882812 6.550781 14.304688 6.640625 14.617188 C 6.472656 14.527344 6.289062 14.542969 6.230469 14.785156 C 6.035156 14.714844 5.835938 14.699219 5.675781 14.808594 C 5.429688 14.976562 5.570312 15.167969 5.765625 15.316406 C 5.628906 15.316406 5.496094 15.335938 5.394531 15.382812 C 5.21875 15.464844 5.285156 15.59375 5.394531 15.6875 C 5.261719 15.695312 5.144531 15.730469 5.054688 15.804688 C 4.90625 15.9375 5.015625 16.132812 5.164062 16.203125 Z M 4.464844 19.503906 C 4.519531 19.550781 4.625 19.609375 4.6875 19.546875 C 4.753906 19.484375 4.746094 19.382812 4.722656 19.289062 C 4.722656 19.277344 4.722656 19.265625 4.71875 19.253906 C 4.71875 19.25 4.714844 19.25 4.710938 19.246094 C 4.707031 19.222656 4.699219 19.203125 4.695312 19.183594 C 4.679688 19.140625 4.648438 19.09375 4.597656 19.09375 C 4.5625 19.09375 4.535156 19.125 4.535156 19.15625 C 4.457031 19.15625 4.375 19.175781 4.355469 19.257812 C 4.335938 19.351562 4.398438 19.449219 4.464844 19.503906 Z M 4.273438 18.839844 C 4.324219 18.820312 4.339844 18.785156 4.339844 18.730469 C 4.34375 18.636719 4.183594 18.5625 4.179688 18.683594 C 4.117188 18.738281 4.195312 18.871094 4.273438 18.839844 Z M 3.871094 19.515625 C 3.871094 19.609375 4.03125 19.683594 4.03125 19.5625 L 4.03125 19.539062 C 4.03125 19.445312 3.871094 19.371094 3.871094 19.492188 Z M 3.871094 19.515625 " fill-opacity="0.3" fill-rule="nonzero"/></g></g></g></svg>